<mxfile host="65bd71144e">
    <diagram id="CUzd0wylU65Xc-D7TrcH" name="Page-1">
        <mxGraphModel dx="1084" dy="387" grid="1" gridSize="10" guides="1" tooltips="1" connect="1" arrows="1" fold="1" page="1" pageScale="1" pageWidth="1100" pageHeight="850" math="0" shadow="0">
            <root>
                <mxCell id="0"/>
                <mxCell id="1" parent="0"/>
                <mxCell id="2" value="&lt;pre style=&quot;box-sizing: border-box; line-height: 1.7em; padding: 10px; border: 1px solid var(--card-border); border-radius: 4px; word-spacing: 4px; color: rgb(165, 165, 165); font-style: normal; font-variant-ligatures: normal; font-variant-caps: normal; font-weight: 400; letter-spacing: normal; orphans: 2; text-align: start; text-indent: 0px; text-transform: none; widows: 2; -webkit-text-stroke-width: 0px; text-decoration-thickness: initial; text-decoration-style: initial; text-decoration-color: initial; font-family: var(--gfg-font-primary) !important; font-size: 15px !important; background: var(--card-background) !important;&quot;&gt;arr[] = {6,-1,-3,4,-2,2,4,6,-12,-7}&lt;/pre&gt;" style="text;whiteSpace=wrap;html=1;" vertex="1" parent="1">
                    <mxGeometry x="60" y="20" width="310" height="130" as="geometry"/>
                </mxCell>
                <mxCell id="3" value="" style="shape=stencil(nVzZchw3DPwavbJ4g3x2kv9wleVYFcdyyc719wGj4minwWl68ybvoneGJM4G6If07tun918fH6L/9v3l+bfHv54+fP/0kH56iPHpy6fHl6fv+tdD+vkhvfv4/PL468vzH18+vP776/shOf76/fnP8Qt/v+K8a3GAov/n9YMUnaT/PvnlVf7z05cb+eCinOWrE8/kaz7LN9fytXx0/vz7OThPfj+6Us/yyQXy+/qtP8sXl8jvp7m6Q16ofHYpnOW7C2Q/s+vn/Sl6Iu1avuB6S3S5XMtXF9pZPrlembyAfHGRyOtugHx1JTD5fj7fInNFS/nmSjnL6ydyLa+7DfvTXSH60J2c5at3icgH/RoAYarUFQBOWAGVrCCE+cIHIM5DXAP064AAdgYKEAOQTgAJtbom59kuZVQLBQSipqG4XA2APaGiYgwAW7S4mswa2KKbi3bRHNDuA3SX7wKot/bRLJp5R79YNNul4d/znYB21zmox16cdCQA3ZP71pCnx/3RbS2rkyYmql4yeQMgXsy6yQEg9qB+z+4Sszh1ZNYePAk8aaUaFBBWu8QBC3sgi9bUY2EPZFtTWtgDOzgFVDEAohpJHdldypfKTFd+0JEpoFpXyRZdF854A8AItAHIyrcygLpKs2iaVTVMMxRQGKAvDIjlSQro/QzI9AnZm0WXuao1IJiwW3mqp3EftFWo987RVdjWTu0hm+xWvIvE4nJ2/rwGiTy9zejuJbtIDEjTa0igpbrMAHXmswdA4yp7JcFFt0CdgAIaAJLLJALl5sJZl5qm7eykm+vwBM172RPUe5/Vu2vaSNyMAvpZl7qmcOQJWlbAGnqe2nUFKGfP12V626tXAptWQGG71DEC9cIPrmMx2cN0z5eAgueQ+bbWc9gdqkG891i0UT5qQB2DonQXNwd3Pmkp8ygvD+58DhJcZiXloWo3bobqUjB+qc59WwPiIqvsxC8poJkqq7A1pFnx3NR9kahGybOsvSlcO7OH7AQq0cIXXQxAgyJRb30ByDXGvrFz0DeG4jvQJFFrbTnr0vAjDNDQGWdO3+iuJ8OXMO+t5TYU7BoAGAGliuDPjmyEGAaImCRqEKuMMom4rRpXK1n0UOazeo/IzUiWPDfxhuWqRL01FRFY9EHcrQHHJh68W6cRSFMRJOo6zYxrQ5pCkzrm+apJ4UaeSV5JjGoMrpGcgwJaR4An26qOsQCgUFep2VGEbc00TisA3P2oKBiflpBf0pqlsSfkmbvcMLiNqLeGj2IALNHVhA2iqFZ2zIBEXGwIoCctmC8pILNdakgjJp7zNT8rzwPgKY+oALQH7xJZg8Z9OQNipwfXIoZdBbBcQ1MROLgBIAfXDBESDxu8Atg1UEBxqdwJ6NUAiJtpdR7TjwIEGe89AHzrblsbJicKYGG3dXT3sdGyTJN/PAehFHAPyGvEMrPxNcA4MgWw4rUnrB9imtuwBuRZqh6Ag3a+AjRYA89btVqoZwMKutFsDRUjUBCazbxVPAeg0BROAVDih0jdfW9YvPIKX+VhkzZ71NDe/PyBtXzH7MpT41H5iL/PsoZ+uLgbeWJrKg8b6rmadjRm7zJfLzhhP5O/S3lQoamEa4rfe+QDI+VLxgPAo9J+ncoDIZNo0d1Nwcr7gSoPNECm1afKJ0htJ218JY/5/04hgLFKlMbohorhPPowMNx/agAmGATu5RoSN4Eb/BFa3hR0c75AxarBcAMAn+jnBl/qgzF4/v6C78/6q0OfBeRZ/TjsBR0iO6+lQbLM0T4g0iLkf8jDAfAK2xpM2Lj0hlWRxiRW9CsA6J2QaYWtABgKGd1ZphSCTiV02oDuhuMdx0yycQ31wDjFREuQbjPZQrPxfrQTDgAnwTSDggaDJnWshaE5mk19Wae0mwbDqFmYang8aS2jhCSmzVi/1o5smKHZQo239BSQPQLYAIpN3xVA03dTIOwApgTZAUyRMwCsFDTKtwMYMjLxFsYoBbMBbIpNC2DnEA0PwSNzC0h3pkzZGi3JYVZncCls0abnoQDml8Rkv6Ody8iXZriUQtMdEQz/CqB8UHUiCGD9MynYwlAA49olGydQqS5JwgZDEtoeFtOmVwDLmsXqUqNeQ4LZpUbTJAk4ZzjoTrZoM/eVOtWlalxl9pMWuyJUYSprjD6SV6oyq90bAIuitc6u5S1PzSjbsmDCGWtWixnfzFSXajbpf+HzjAmJi1xpYK9x0ZGgbH6YMfMAHBnUGuCnQU5A8fTgiuljlkBVo5iqv/CqRAHB9J4qa4cJZjOj30VM9K1bdgAK7YmP7hYsWmg2o7+XoR3WaYNB37jCyAdnkRVgx4eYXyoJk5PKe0/F0P9qtJ0dXMTkRB0Ps+licj7hBEAxE34aYmhr1aMTaBv19lgSjyY66/Z6VO9Nm/5tRvpgzQKtKheAQkdv7CtpkUNbq96QkZ5TW7lP5u54xGZUvKNRa5VTyUGo34LRMq1BWJtRAVAbDyaavZJgDrcbdKmorpr70tmbgnxY4yOvY57/rN+qriz/Gd3g8xqkUe5cYyDcmZDKAaahrDnXBgDdKs2I6EmbWTR1G5VNWXkzsdeptmq2A7l0FeqYNAHDKVyh0wyLqUOh9cBirnELwMnJDcDOZm4BOP3JR/wW86VCncBiglXoZP1iRlYoI7iYwuXNp8Wcr1COeDFJLLQDvZhVFlpmLaahNwA7b81faTHRzRe9mBnn27qYSucHt5h756qxmKznyreY3ec53OJ2wOYJ9v7BBrBSjQ1gYQ/spom9pbEB2Hsg/BwWN002AHuXZQOwt2X4Li3u4wi/y5LNvSg+LhoS8najPGVrSJgaK4C1BoLhTyu/mxaCCSiV37wKxqbL5Kguug8moBRq0wpAE82U/lldKaIELRIn4yoYY4BxGnXcZmN0lFE8T0usivxY6bQUMCFdS18WoU1E17qUsQEFpxhK4SP4pmhNtFJPyGmWQO8rJvTxY2SZ3o+FIiPz0ipgWa/5NLX7ubobSonpj8d0PvMWhTcNB9408dguHaQycXTetJO5vZjuYeI3XUy00fSKFUge9U3lWXVupsPHMB+Vh7xf5Vld69HDjWyP6IM37ZtAB1U98k5Dnr6P7VixqOGRE9L1suBtewyR2su99+f38vrH22X9j0+fP7/e9b/9Hi/360ev/zFA+vlf);lineShape=1;" vertex="1" parent="1">
                    <mxGeometry x="127.3225147578969" y="74.70022549519948" width="59.07987143935119" height="16.13156806301659" as="geometry"/>
                </mxCell>
                <mxCell id="4" value="" style="shape=stencil(pZzZjiS3EUW/Zl4T3Ml4luX/EKCRNbAsCZK8/b2DHmR11o2qkzD8NtPN28klGHFj46f6ze8/fvfr508l/f7Hb7/89fM/v3z/x4+f6p8+lfLl5x8///blD//Xp/rtp/rND7/89vkvv/3y95+///r/X7/bI/e//vbLP/Zf+NdXXDp63qCS/v31ByMfdf33J3/+Ov6nLz/j+HqkguPn8/h21ETjpz2PH0fB8dafx8+j1ffj85FlPusYsN58NPn7dn7xzfj1vD8zH2W+H1+O0p7Hl6PDfpZj1ufx9TDYn3qU5/nPfhSj8as8jx9Hg/FN92fOY8D+9CPL/H3/4e/3Y8l4O0Z+P34cfTyNX+losP/z3I3HeJd/2P91pKzjDea/jvm8n6ucN+jleDta0/EG88/pyOsZUHEBDrCsgE4Snc8NvwAmfaGcEn8BLJBRB8gl3gC6xPUYNQAaAFzpBMCkbe1HSgoYAwGjKaDRtrpeGwrIIEkOMJmS7xvt0lRd7YBBu7SOHIS10qKXaiMHJNKmdtRwfSYDdNH56CBL5XHdL4ACF841dhIN4DcEdskBsyuAVJjr7JYVQNvqSjiLEfFtIKMQtbbrEQI0VZOuhhetoZ9K5QIocHCuiNOzXnLDMOngxnmDL4BElnMqtXBTVeE+uC4WJeC2cNAu2ZGaAhKtwY4pAFc8IEs1qWi4OZ+gNapLa7D/GXbJAUMOzpUAEYaiDMkBxPAcMAPlIRNXa+A8+dzod4Ap0pp4DU2tugMKiIYDhLY5zSODUv0+TAXgonsgqsZTciZTFYDnMI/8rCqd2i6SpakmazAXq+sFee60S+u88hdApS/YqauvANpWO9n7BVBAt7akunUDYFsdoOew0E47wCKAppRPHXEFwLY6QO7DXgPchxbu9N5WBnRTAJnd9vACLwBSZA5o4QJl/kK8QJ3OoZ2O4EUJZLhxDrCiACKJrR/tWbxnRs7nAOHe8+H/vQaMsAZX9/SFcXKXiwXKcIHaDBaoo9l1gNrpjnyprVPPXew0cQ0H9EAdSBk7QLeVFVmz87pc+FKnRUe3LCHBcsAQdp/PjX7t5yblGjfugANE+FZHReaALrx1oGvsANHea6K6d4AJ9+Zt7fmc8QmwjIysB1VpBVmlA0SWrPE5ZA04mDNZ0N69nL9+ACZ6iv4FuaLWMaTUHxGGyxpw0UWDFMa+6AZ03dabRQvXsIRhtB4skItG4SlpEGGet/wdoAXxJvvgAKEO66HP3wE0TNEwttdrCC5VVMYO0CDC4yhfA9qpqy96iXSrA3pwLRetoemiXbeSx977qRivEUH6Qle+NG/00ghr6CxLM7g0lXdpnr++2GmKivd1LvFCHXBbLcTRDcMUI6j7MU8f/jUga6hldLSio6idHg09lFFPlvoAFFQCDhDNtycJ5+ATkOipbwNFHXyJYqd9o8mKjqHxaD9KkiUHCPd2Yalw0n5MVQAD7YMDZJccQI6fM+32LK0fd/A1wNRk+S2nO+0Aibc6IAPgw91+ACqKxr4uSQFEdDfTFgAL30cU4wIg0dhxEllDRkU2Q1xj8xswKFsLPetWZ1AU93Yur+KdMOqwuXxVAJHEHREbCiDh2zG353Nw6rtAvB0g6t4Bk85haqxyk2sCLGWVDugkGuvU1RdAozXYyYMvAIrzuVXO4QskGg6YSwEJ7sNOW8kXOKK781ZVAaSXnIq0pQDaJSc7QkO3K0hTqmoUHUB8yQEmU5roi64QE3AAaT4HyBV1AOUfV1fOtz1sOriuNq5NzA44rc0jAOCKrpATdQBxDQdYAFBax6l5lXMY6NI4QBIWDlg0paXZMgeQMl6PCMAFgNJqmvxyAO6SnYn6B8AJFu2SqWF3AFE496lqAJDD4QCVpXbekNeAHBbdULdaDleU/WkHWACQ5nPPU0+6oixZUaepcQ7FQqzSAVRz4YAapoRrqOEcyinwrwFNHXAHUBmLA4aY3YzibaHwoiUs7HCAxL2roVtmoVSjLtRLNtR/qIOldaiLXzuvIZD1WtEts6lZy8ok0QK7r5zbtanUYacleUqSXiuDtzXo1tLRj3OAxJdKxUSqrZOaPwAZHQ4L2rskXsNSO505JeIAkdbMythCkDk3NCgOkERq5qCahZjALozhRctJ53TS97cAiWAhV/fxkuAYmHIx09vQMEDm48UXeNRWvB3/fGgJC4v2eJPxFD7w8cJYE/qUZpr1Yt/Hx0uAPGG0zsdLlpkTUhaKX250i2n8PaFI55S0yimjk7E/YDIerZRp8DBjIdjeoOcDK3cCKtWiBbPFFrLF5U6ghTlzPZQ93MaP8UQht0CLimCqY1qFk9EZeXUhUQOF8qyEIcM4/xtOYWrAORqx91/H38inRC8S1uts+dH5k59jpoGCxHw8yH9iwh/uV8K6r5cXmC7A/wyIO9pP3/DtiUls/m7Fkn42DBGYqUuUM8ZrX1yZwjTW1IF3Oz95i6TEOre7WyzZ5zyYZJp6/HmegcC3hlvW8KjUfAsQ6sFRvEgl7mz90tI4J5lU9LUJ2vNdK1x8Z0uVURlYH7tZqTBrrrCypbVDTvapsicy6+rXjURjqoFyhwVPep5/7+ISocmZ6vy600VVYu5D6ZTWSaveAeSKuuOIXwgJQPdlC32hqxlpN3a8aT7PHXh0upoywcZtFg4QJXAXF6nK7VrDCJjVF+GmmyCExnY6Fvpb6C1xAEXmHaAxZ65ksFDJ0G40X9YcjAPw4LImnnackC5Q0nKmNvikk3K8NrEC1wEpADAibGcHzTVITVHtUDXZFirjtZT3OID00lpKDNvCyp4d4A1foJqVNUNkfmEuzAHCZHYZGK1hhDt9k1KJgXZDf22H8kNa6AagAV5DWVotaA1DVbkTHiGPRD6zAzQ4alj5+dE9dAFQcfZOCwUAuf2rBM3HBmWntkK2DZu0sgYWekK9tKtssgKIR6/H37sAyHWewfXs7Dt8NHBcAMRbd5o0JJNpW3ci9lmWekZGNkMxqgMon/fRwHEFUOa2awSmM8HaCXFTAG5rO6X/AiCfePdjPkvrrjNgQA0AIlizaHZhV6bRF4ry1l75CzlUlDSMbM2keskBmEFPYdGcqRqmXVe9oxXd5eQirbdlNJJS2YU69IWliqxPZGS7NXkpAOtuRrjTC92B3SwtUzLUS6Prnd4VVrTokBAffOMcIEHkUXgNoWrSf0LOq/890d6+KjKKPmM5h73RBIhd7IvrlE2zz5ML1/xcl7Q4ZbwPDpAK3FmxFGiXqcmUOga7XPrlxrl6pjRpH0pDd8sflVmG0ge3elgf+zjXE+B2lfonXKkIu99l+AyI/ddYOt2U3S9OJvcaemYbBnF7DYXN/fSK3gG0lWCe2bHXgKIZw8WtNQ6QvKrdlB0H19K48aWHpsLt/3JFujABd8mpcX6XC8oaBl/RokT3I4f4DpA1n8fx6M1FpNLfuCQ99kNMjBhvPpXCqkm+kyqm3UDBfSmSJzXW95s5S4tGugNIKcNiq9hCXswvBB11C4m9xSn07VSFVxiwE8y0MHM3wlOf1lLRcNVHPn4LOffJpdAt1B1PLoV2gExpTqQCO1AiU+JK/zZCa3HHDqRdsiUWpSGH2xGu0IBNYYfWg5Hjno7WwostTO93fVSkAtwZKVnQyeUYO/gpJ52QbLQSWjQS1oq2EtJACcOhu0O1KABbWnPYVs7dveiyNV50Ct0KhrmvF53Cxp2RSRe9ATfdzhYA1Ahveh/uAOFFj5s11JBE2edADxKEFMfNSe++9iCt+KjCCA9DJAxhOSCFNVCwsoY2k8mRkBridpPzrg6Q0LoDqL1hF7ZFrUGt9jW8hlG4N7+Ep60KVnPU0MK3OyToyYMc/IHHyw/vAKo1+HWxmjSw4QDKcxYL709x2KFYeOBqoH0oK/TLDXR3ywy9ZpwN3mlQ+QK/YLDLwkLPH8W8SmyEv31/RhsdubKjVI2EOIBclP2GjjCyh7C8BpQXDweRX7bfAQpPh5FB2W/PBd+SaGgJBmWHwuk9plBvsrjueL/HFLxXYpU5ZI5WRWWcw5sh+yEtKlEJ7T6La3ZziDK7Q00nnUPLkgOou3O/7TUVgGvo4ZU4Tu7mpuRkNa78iS+gNVT3ubzYJZLWHOrwF5e15OC87kXz03VS7be4r32/dRfWgLU8wSvjxzCWJl63rFI2QRXr7u+mpE7QSRxcCvXu6+Z5hOC2JrSfTdunJifWWjDoC8W66suBcyKJKVoecOMflkDDOqZaQsvbvHk2MLy+wo9zZs2dzoz1q+kFnSe3Kul6x0JClfQK7zg37GfShMZo6G6HYsLbx2B1/N1js6JGR8b0eNKgykgYA0z6esJIyGjj21HsBoeuz8E53NA1Pbi9N4VMyd14KRa7nY++OXC3Xn0s924/NQ9zd149yA/Lw//7uLGO9398vKT8w5effvr6EPP19/rysv/o66vN9dv/AA==);lineShape=1;" vertex="1" parent="1">
                    <mxGeometry x="128.59974012748899" y="82.03244541529742" width="99.46470963991048" height="29.152148159307256" as="geometry"/>
                </mxCell>
                <mxCell id="5" value="" style="shape=stencil(lVrJbhw3FPwaXQmSj+vZcf7DgOVIiCIZsrL9fYoROBoWp6vh22jUNeTb6m19Z59+PHz5fn8X/Y+315ff7/9+/Pr2cGe/3MX4+Pxw//r4hk939vnOPn17eb3/7fXlz+ev739//zKeHJ/+ePlr/MI/7zjvoh+g6P99/yJ7V+3/b359f/7p8fnqeXMxLM8ncy0cP1/49626Jn6/uZjW5811f/x88K7kBRC7SwpgLtgKyM4LCUJ2payAMIW6DWguxAWAb3w+BsAIVldAdrkIQHRpFRpSFXVCcqmvgDjPvA0oLtGVgutRAJqzxCdEcYJ5FwrLYF0AgqublnwSAPgqCV2dCS1ZcmU9AZYJQmjL0zcvAHNZXam4Tt5aXVAARAvFg3dNXam53FZA0lfqLqxC4ye8cD4AynpCCjJEk3eeAHn+xBGAfCn1M0Be1ZptRsgRoKwn5DqJ5xCwWroEGdPjSgRIrgq1AhBXLRWYUjFxd30lshqdF3YAIBMgSyIDwK8y1DbJ88j5bAU0ZBPt3uStzbQMxfnVW1txTXlrmkx6AfTJ57cBcd74Amgz5x3RjI8sg0pxuJLPm5YUILPzVdCziIeh1lVL1Z85H5FxAZEJMk7R9RWQkbKElhDyBEgwnGKNzmodXCiYL4fpCFeVgIkr5cQ0g8SukmIuHNMhyVojN+bWNtPq7ech85qxkguCZEBanWjMRaWiTYAmow0aqlRnQMnC8XJ0jVJukW4Bo1FugA2KEAFuQfGMUqUrx0P0rqyHCDcRbanyleB4XWWfwlZGTayYG7FA5dtwdhWeidU6fFeFZ5r8cAF0GTwAUN2NdNWVDGljjO6qiufthJpkcQUAJfVadZ2RuLhqYUb4kR0yUT0uqexQmDGQfaoIaPgSVfZIJtKXGjcb3Us7oF0Lq6V7lLUSIq4TwCY1H5FAWEmj5+nwhyyzCt3LdJYj2rPCAEUCBf1PZEATRFnyTLBXAJXf4Mzk3hC6C19C7cWGg5YELyGF+7WT7klWY7VzKw3DeWGHduG5CyDILrFlJjI4n5KhVVYr3DsLw/WtFWiaveHMHHF5uuNtwF7vmaxZe+duHUWu0hIAtgFUhwVA3gHCcADUwABVRgNApQ+cRbXGAPQNkISWgvdbL4BDtRCdqM9PxR0K0RlQNaBufK96smGIyoB4YurCgBMZuOALsq/sSAd9k0Gd0CbRXWmpCCYDoG52UIOZAaC822U/M660uYaqTobQgQFqBNcv5dF1QGg7xMwANVEDIO0AHUFlAxQdD20LapXZ+97f9znQOgR0BpxoiZ3Py8w+AJEBRbFxZ9cAoOuIK5RR9LD15wF5a9ez7L6RgiqRQJ38fJTkyJdan6Xs7TTaeKiBRB2EpXFjms7ikqq8RylAc5auG4h6GaJflTOqwqpbE9TRRwm1omAi1wCg65KMBmSDeBQAdiXAxVmOykqj7vUj7R1VrrHyEWpMjtqYa7I+R5G3Aca1wInUqO9TYr2eDFqonkFtrMbkaGpoHDWcSbXg29AO/t1UY5a2JNdk9Y2Gm4uNkxGzsakRImoQD8CegtTsJ8WZNK/7XXWlDVA0bYwZ3Co0enY5OzFuwUfnpdpX46ZmuKMeVNCwZYxf1AlpGwtGLXTmKtHKDPPDcc56gnkZorgxucaYqqkTOk/hgl5XIERpxBx0AEHrTN967pi5a8qyMAYr0UwgSLLPcP1Vp5omi+cOSA/5yrYLybPhP6Rhar7llCVv8/FQZL+UMw8commNRp5FWZiz3cM5DgFO5mmV99ip6VlU4tV9rrJ4S2FbYWU5/bVtfF1NDn6sTre/qlgVR471DxVvJj3VEqfPViS/2JZvW5LjALuMea4KUFUe2rZaH1s1dULlMSXUqoYmY15NvYmuuq3xprxUmW/HlnnbbqrNBgBlNVzRLDwARAF1ks4hgNzbzmRIawAhBlV/NbS0Co3CRtVuY2FFc36Tw6sRD7R66PPFjSNfarS8L7JzwL+JBD72nUfunVbA2Krp7Sa5dyySKhFxZIdo+gWEyEU30o9q7gf1rjIEvYeDiGXLD6rojm17mSVLtUInlNGD3sXHxC+CAKCq9Bh5fAAZTL1U5Lm5P3ltKTQuY/ATSq0fF7iytFqUBeMrxSoXnCHw3gu2zyKhdN5tjPhRQ/htQetll5s2yshy6BO4fs7x5Hm6P0hPTXD8tjA2uSLzPDwcL9YIA2yvyYznhT49N6vZJAd7TlRZM+r2XsPYUEt5qVPF82p/7ZlZ8LzK5dsUPQdZtF286+p5Nbfx7J9jwS7l/bnXP8+fx4ePd02/PT49vb+qev1/fjcVX72/12qf/wM=);lineShape=1;" vertex="1" parent="1">
                    <mxGeometry x="159.76842064266958" y="89.48047514603317" width="11.94447254453989" height="5.364746848646827" as="geometry"/>
                </mxCell>
                <mxCell id="7" value="" style="shape=stencil(lVrZchw3DPyafWWRBM9nx/kPV1mOVFEklyzn+PuA2XB22JjpLb2tZWJ4AGg0mrzIpx+PX74/XKL/8f72+vvDX09f3x8v8sslxqeXx4e3p3f9dZHPF/n07fXt4be3158vX6///v5ljBy//nj9c3zh76tdcL0No+j/uf7Buyz//eHX6/Dnp5d1eF+GRxf48LwMl2l/ODw675fh2aVEv16W4dVFPlyW4d1JpMPXxYTgMhlvFh/EFbpZWU8+5DnjyXg4+tCcD+fjxbW4ju/TG4fjs/PraeoJFLKe4mpYx8s8gcPxzfV1PTG5QMbrcTdBg/+D9dggz9DdDLIrhRh011aX6abYkeoCcjEGJOQ0xFozSyJ7kGxmSPPcDg2SBqVHN7BNp+okrQYauWSGHF2FnPfOk6TPdcbNFnnVVbKkEkyo5pkcxwaKCyuuBM0O4ofSnICBd4V4unqX1k03l9l4g0VbehyPj/NEblAXiROquLB6TWgujO+vG47zyE73C9nsaiUH2hHtxGXy/VIRXTSsyfmUhGBdKHiVON15A3eWZ8W7uI4fEURiNLeZ6JtBmVF7bJBnRO7wNJItZwVsyLNCi2vWmKurDwIt3tlj6kt1gZSo1FxbDdIGBmfgAmiUtsw7NiizZG95IDQwUppxuRl0F4mnk8wqs0VSoqmgiBoh9Po8t2PM7i6tM2i2NlLZ9NRlnaEqQPKqENYy0tTTbEnRtfWUGs838YjZrU7fH1e25tK6pO6ppzWYoTr3ODH2rNgCRPZEMXIwpBXzuhZbkg8jIdeM65rT5JSUMJS1UPU6cfbYoLkAsNTophVU0uq43ucnjg0SVmc1yGwGmaCyM2C8U3mYAPH0njK9DXr3M7BiaIh5nzBywjyT4KGyHeRJ6nbjPTkiMYGn1YuFNtZajTtW/G0jkmZ+n4wHfBmZwzzmIqzHz6g6+/6636agzWiwCzBe98vQCDO/RZo1GblI7bSuVdMHFspoNaLDekBKl1hp1iSDWq6EMrBWs0+k2gyEw6lgs6NlLROfKf5W6JXzTItjJwhmpfIH1ihIm+3rrpYzKNJKi8U/TYZyRi8AHZVeRBYYESMpedqw5eIKMJ42q/sZLwT8FSXyJJaUTMAeRgvHmK12R6CJpFlKz1oLSDfhHV5NZgbemSv7gC5V+UMiMzTvGswQqKebQqqgAYP4VqbWsjMIJDSalkkw8LTo9ID6ixpUEhpdnFQ0yOSUtMpAXRBPieQo9ckYkGNVA+hS1YA5Tg2q2QPrg3s3Cp7nFOnGDXaeY2g8pjCuZjk6NmGCKfFNJBt9/Ji86awK85xipTXgsQHUU7japhQEHREokxzMNKAB0zvVIJs9hDsGAEx3Uq5iCRopd2fTAQ0YExjHajKIUaXhODPDnRz11oAAkxpYnEk8H4pJ6jvRCkr1OFbGTg5y1FN5ZUwBrt6q0plBs9HHDXJCAya3D7C0GcQMGqq993P0gwYy282dARMCtAYdGJCk1ioH1FgiF92LAddIHdeSyaBIL2FaQGn1Jj4cs41m6qhMPeTYIKNWpwaNiZnm5kApFm0o29zijsQxUWnIkxB8hRuYHksqrdRDRIcZGpW4s+H3yo0LY98dHafsu7Gbg4T5kDIVfdN2T7DrINiSxNxBKeNnAqXCFogZQ3YlIKC9payxpIyf3uBsULqTD5mnQ8EuSKOLwXcwVwHajVIqgD2NtruMJVYX1nzTdroxmRj1nhbprW1C1toyBTFtE0HM5BqxYGUYSiNTS1FH75E26+ZST3GctXwZU7lnepGp3gH5plC5p8342slPTMYMHlufITIyfSgaQanRRA4GgYeCxpZUUJ24scszoRRnKPQ+Ztzdxo+cagxGf1a0YQZi1GGhKv3QGWFJkc9QkNNrfWdttKa+B4NKC5sYhVvrO1OHxSanfoJDNrQZtfKriYpdcRXagkrHJZVOKUwKWM0HZDMAM1dEuVOxQSthXveg1Zfei2Wkw4nrUKkiqGpxptf6zVBJLlpnb4heoDCcIy4p8lqbEwpXWkzpHWtB1TQU2gPkNnuKzSBSmNFiD6yq0yulEo3we+9hAtwSJ1p6xrU4nClt6kvD9XARoHpU9jwlkePZQMLx7ObG8OA4ycYplcdnDExiqEfnybTShA9DMsXHaiTrOpWfs84C+uDGnyV0PM/ANZVSEB2DcDlZDt4lsI4wm4sDrb3sPjwb7XZwYnbj3pCPaFQwwqnQBhr64GSsJGR8+aB+pjfufl74bQaF1sFoED7e5SPAUocBo0gJX16OJVHVxhjwTVfjt0SLVMZrwyicXKD4fHvueXymB+WAgYXhLuM2nbjAY180HlSS/Xp85xE47/fIEu48CPUoIvP3ph4Tmb9mNRIefyvrkTnyl7geVU7+ztcj8+UyrVkMF2lNk+9pB+4nYb0NZ2HmkS16+jjA4+Uafwx5UIAZOgeEznvD5SOLCdjp8q0GBJB7+drw3KlQgs0PD4KPP1Tnw/XH7U38t6fn5+uT+v3/4xt6/dP1/b18/hc=);lineShape=1;" vertex="1" parent="1">
                    <mxGeometry x="181.22482710368905" y="118.1523213140899" width="8.7698247854068" height="16.223405762096746" as="geometry"/>
                </mxCell>
                <mxCell id="8" value="" style="shape=stencil(lVvJch03DPwaXVlcwAVnx/kPV1mOVVEkl+xsfx8wKo5mGjP95Jsss8UNS6OJuSsfvn/99O3+LsfvP16ef7//++Hzj6935Ze7nB+evt6/PPywn+7Kx7vy4cvzy/1vL89/Pn1+/fe3T3Pk/OmP57/mX/jnFRdDlQnK8d/XX5QWUvz/N7++jn98eDqM73ocr6GX6/EpzP/ajZcc+mDjWzyOl6ByPT6HOI7je6iZjW/H9dcYil6PL0HqcXwJmexXghz3W1vI6Xp8DbUfx4+gZD0tjHQY3xI9/xHS8X6bhETOX3E9zdbP7iuFeDzQZlMyg7AbgBVpELLjZAs+Lqmb0VYCqKGVIyDRO0ttmdgO0IjRpRFyREAnXpNsiwkBbNPTLwcCUiOAzQx2p8QczTxhRATkTgAldDANXc50DpB1JjvTULYku7iKgEyO1byhAqDzY+2hHI+1bQ51DjBjzghILL6M0GFJdYWEc4CG0tBDB4t4GrQggIWYEoPAxZXQyE0bQBUBiQFSqBCVMjWNYmG7IqAQFzUAxiX7E+SUSnEXl1bqugK0gYBKPK5IKBEBwgHqlsRMo1R3rAYg/mC5G4NxWgZ/BWjNAdhN95AdQNgMfRnzDtBI9C4jiAMwfzAC4m2JWqu6TXNrlbhsc+cPlcwglhThpi0WEhcVF70tzERyrMaiBPbQl/2eA8wfwDR0pckrwHAZiM4g6KJd1s2cA+rKNxugrVh4BYDI1wdfUsMljUgzkJHHdLSlYXSPmUbHHDcs3LNjHXgPo1OfNgAkxWEZg9mSrsC4AGqb5gA57kHzYuFXACDRKtTjxKUsrZS1GimHMKOdhhmbAdiMNu6iBqi46U7CzNxDxWNNxDRsDxGMr9MlzU0fT2nIWuQVQACQKV8yAFhrV3rTBlBw0U5paE2YFC0IdLZpS7JHW+qZUjgD6NE0jLcyRlaNWTiSqGzTGWvcdsNaLUZAyjIywZbkqTTPolWwfqhKy7Ja1zVtgE6DsZWpkEVtThZbDaDH/GDnxuoHK2zjcQ/TpdgpaUgAsBxHAlmLaHzCg/FkeAAoi32cAzI6kGVulkXNEMbRRY1MRAaQFas3gWWrKM4BFYvXSbnYDA2DsQEikxw6MgGjjZXNMNC8JzFlx6rLXTZApRWKuTyQRAOwqDEVgIoApvtYFIpuSaxC6Vv62AGYP/RysodM/MEiaSoIYFqOAUAsmgBiS90VHAaIxOOMsEHKKrx4tfSBxyq0yjIAmrfQDGSUEPJ04dWuUcIYEcA2PZK7h0yP1bJygU0n6nFGOkEjs6KfyRRGOiFU5sFnaCuSbgBzUXKsYyCbycJPSTG2Zq5UTpZ6PKWpmhFbMsIGaTd1SkPViblJKBMwWitHJpByGGyGijedEpdb28oGG6ukKoWNx2qAag7akQd0GpRsPNCxRk1bh0u5y07Oxzu1i8vvNl5wPFOXbTzoppFaqY2HhB5XgLoaDyE18vtVTOeR35ci4Y40nqboolfiF6yo7SWqTMzxEIoo254H1GC8MANS1EszjdaqKO5nSo+mQST8+/zCoBjOlJlPg854PvyCobK1878xHmLWmvByvDMg7mCgbcUVty/PJ8N4Jj7P8xcYz/ivOnFuM/BL+0GHT3w9A8cXbj9AJyJ96TnzL+Yvpw7MVII5ARoQezCcGz4uKN/a8M+NH1hed54BHKEb9MF5Cj8gBa0nzasMCRE33bDQ5jwycd5R8dUpcf1YN/F3xzuY5qcbY90AjUfR7JjNoGqWJnweMTNiJdpwml8utB4ywgjsbD7vMYbZ0JPNkujTdsWLy5sKeEWrYYbCfW24YzWmzwijlQbZVSss3FnxkSIClFWNTt21Eo3dtNVDwDCtGGdvQr3jI5IBlFVcW4fATlAo5JRmmekkC2Gb9oUsl1JPSuW+5nxvMd5pHjwp9ztldlNQcEti4tSULJoDsGLcvfPemGHKLg7AmmfawMe8qTWRU5pKK+xhLD5zBcBTGrQgak63LMrFqbrq3J0ix461idMt+UNYy5hBpVCxtiXMD1JpDm1xbXGnjDJA1fWqu9NeWUtMHevZa1N3E3Wg2rEQrNsD4pV+XGCGRolGrUso2gBcGa2CVM8OmhWDBoBNt8KfeAq+Opl10W6vgvdgBk91/IwO1JTyfwPge0qiQWCq9qAQFCppnzzA1MWRrwBA6fvgx5rwtcPSJItLdRNZNkCmXYM1oU/PZ1v+EAa2NDql3RMAD5KRCp3zbQ6ebW/sIWLUMGLKKJwBQGU37s5ynPhSI/JqTBTTqA7+fq7YvznZNQO4FKRccTJAdefKEvV8oT/6qN0cK9FnDwBocoOKNtKxRjfuO4h9S3MzCG2iMQB2GWTeZeBqmslM2QyCSW4q9WwP4pTIeqtjRaABpdAoIO7dtvPHOQOAat6UupwkFIfaoFlR3IO7xfvCAcBOjODQhiwnkFoKYr2rxqewC63ydqnhcpYsje8c0N3rtvB+w76S5g7AAtNsW3Mz3Ohzw8Y44cdal6m9FyAoa9xakrimMuHdgGVFofeeUjk5VqZdlXxyrEw8LBlD5bQlNkNyM1TqDyVh1Ji9GOyUIurDjX/QUFwFboDKWoLdw9Zb0XIOGEsz2AFYBspOOrEww14lcsd3KgOwvp7snpEs8jHimqtra1ZK77OctJezIJALNmR13uw6G9gbAmh7ecK4ZDU5c6Ac8ZHUAGzT88ESGhQLPdbkugGnEHHjU4WIABaXkvvApGeq5iTBUNm3CuEckLEYnZ8qsA86oguVSj9VUKwUp6zAhJCTDMcInP+KoNAdV9f4HWnziWCEsWKZtYcVvAErTNkHLxnp5FtT3fkFYB3w1mN6MR7EtNmIS/5+xEQlvKKMqB9KpOJExOJt8gFynr7Bg3Oqs7/PHp2j06wqVYldY+iUcOl40OpLpawzYlYu/BOU6ETrSvuw4+o/fv94vx7iv66t9Y2NXY0fOJ5VFhG5nY1nYf3nv5G8Nd5+ePsg88vD4+Pr95z7/8cPOO1Xrx9/lo//AQ==);lineShape=1;" vertex="1" parent="1">
                    <mxGeometry x="192.52066550876566" y="73.21032443535904" width="31.065429838928168" height="8.52000991102368" as="geometry"/>
                </mxCell>
                <mxCell id="9" value="" style="shape=stencil(lVrLchw3DPyavbL4fpwd5z9cZTlSRZFcspLYf59mtjg7bM70lm7SCq0hCKDRwOwlfPrx+OX7w8XbH+9vr38+/Pv09f3xEn67eP/08vjw9vSOny7h8yV8+vb69vDH2+vfL1+vv3//0i37T3+9/tP/w88rLlvjSkd5++v6STDB/f/B71f756eXnX2KprXJPptshb01drZ31oRwDojZlDoDgnFZALwpeQZkk+o5IFQT5yN5a5IXgGh8nAHRJOF0gNMEqCaXc4BPps1OB3iVBMAbb2dANk0AXDV1PlJ0xgqnXVoAyVgRhx4mAlTpAxKhzamX/EjGQ0AbebDZpxHJQ/tiaprtqwwbMm++0+xMFB4n46gUUAviSqMJfrIvzmSV2ca72T6bKBI7GT/fZ2kjrQ7tK9vXoHPImkiAbKy40FvlbgDERJwIlRsI0ExVT2hMR83JWga9VQJ406IA4MRz1BriotjCjSTYAZoIc0gjKzdA0vTSBoPuAEVxahiVuwNUlalgUMcAmdqIwwIIqi8EJjDcUhFxSNn4mSIbQinYIjXubIh0FU/IYB/yAbkk+CVHk2eCaSB+UUC5jDvZ0rtKxivb/9tVnBNxKGgbS00rp0sa/28DuFHlxwDUw5x8pZomjlQtZytozIt6qN7kOdIlmCx8qJEbCYhVxQEsRPWQq2RihImcBtVH4XTPHOol6NjiSEhm0hhoVkVQJcqFcgnd0Anl1lmIANYUkd5t6SdQAKriAHBz4KIWVt0HEp9JKwBw9RwHSK2qnLZM9+Bzq3piNWHReopbK7iaAGF8cgxw7APEnHoCkpl0AwBR5BJYg4/kB3ke81Lj9PZOpgYARMYAWMWtdSiLneZ2SovVkWqbqm/GitTAkUhzQ/JKMm7jEjdAuUvG66AhfACgWgZI9nZjltoBlOYG3VMBdQWl6B5KIDCgqeQLrARwS0rVA8DjWNXpvQLaaGKnR5pvCbl050iWCsjJCbFf63wkFJCaQcsmFPYlqpzeqHcHCB9SAvCh6RKNkQFqsu8FFPhalQ+HJRrVExYSQGoEzUuelgdleHVKZEQCGMnUiAiqTAzwwodOxksBKeb7MKDrpaWmVfLVTTjvAGpoqkuknZahXTgvyWdFaqCx56UpOgUoPEtjOlWjZatDTu2VgHoCnJ6JLEAZi2sFgJivr1iU1mjc2CF/nIi0s3b4uCGyVolLo45biZwBHIm+KHcmbZH3abuHM9FHJZfv3GvguQxjkVS6IFcaIOwQmmf5nWiA8HKRg3mApECJ8kg18aiIsSjcmWnm/EaZW3Gt/c9zz6pbEZ7NZYGekOSi9ebifjmjuNLxAAF1fa+j0HzsdYPIvEIEkUSlEtctQpbElJc2ioRXBZQyb2Y786ilYFjWP00qXUxhbgHIXQtaWmCAqri+/iFZeWOesw0T32sbwT/bYfGypY1t6tmWbAWoxuuXmR2BuLPpoy6HUKvs6ytyCkSWbdHFITt36apehjhnPB3pzujHiw1UXFZvZ472S+pVyGjKO85Iasc/5NqOlNR57MFGWtXz0g9LloOrHQHddQZVOssbB7QeteHbvNttcVRHX0YZNM8gSBtVQ28osuTszFMD2MapRRcrdMgFNdf3BJ0fALJRYwlKgPRF1EtWCHg/F1mo49KOQ2B5yRqizLn+bo50m5UUj1tKNO1lXTWe5/o+i4m0C2XZTehWGx1voVzQC/vEE6vbau8YUNmHImUeEo10YZCVkyqXmtZsKBTP9mpKgj2tSnRHg33zbC/SDkLBs70XAYB9rGSvJCfsSRBaqThhz5OtHAphTy9koKLV+syyuLuzXrDcLL1WanYs2G/2quz7fc7+Br3+++D3GO7b44fblya+PT0/X79zsf87f8kCH12/oBE+/wc=);lineShape=1;" vertex="1" parent="1">
                    <mxGeometry x="204.38973065003614" y="84.9765579235708" width="6.2889622986776486" height="4.841136461687169" as="geometry"/>
                </mxCell>
                <mxCell id="10" value="0 sum subarray he ya nahi batana he to fir&lt;br&gt;set ka istemal karlo&lt;br&gt;&lt;br&gt;&lt;br&gt;0 sum subarray ka count batana he to fir&lt;br&gt;map ka istemal karlo" style="text;html=1;align=center;verticalAlign=middle;resizable=0;points=[];autosize=1;strokeColor=none;fillColor=none;" vertex="1" parent="1">
                    <mxGeometry x="330" y="73.21000000000001" width="250" height="100" as="geometry"/>
                </mxCell>
                <mxCell id="11" value="presum ko set me dalte jaao and check is us point wala presum&lt;br&gt;us wale set me exist karta he ya fir nahi" style="text;html=1;align=left;verticalAlign=middle;resizable=0;points=[];autosize=1;strokeColor=none;fillColor=none;" vertex="1" parent="1">
                    <mxGeometry x="50" width="360" height="40" as="geometry"/>
                </mxCell>
                <mxCell id="12" value="&lt;pre style=&quot;box-sizing: border-box; line-height: 1.7em; padding: 10px; border: 1px solid var(--card-border); border-radius: 4px; word-spacing: 4px; color: rgb(165, 165, 165); font-style: normal; font-variant-ligatures: normal; font-variant-caps: normal; font-weight: 400; letter-spacing: normal; orphans: 2; text-align: start; text-indent: 0px; text-transform: none; widows: 2; -webkit-text-stroke-width: 0px; text-decoration-thickness: initial; text-decoration-style: initial; text-decoration-color: initial; font-family: var(--gfg-font-primary) !important; font-size: 15px !important; background: var(--card-background) !important;&quot;&gt;arr[] = {6,-1,-3,4,-2,2,4,6,-12,-7}&lt;/pre&gt;" style="text;whiteSpace=wrap;html=1;" vertex="1" parent="1">
                    <mxGeometry x="50" y="230" width="310" height="130" as="geometry"/>
                </mxCell>
                <mxCell id="13" value="but now we need the count so we use a map now" style="text;html=1;align=center;verticalAlign=middle;resizable=0;points=[];autosize=1;strokeColor=none;fillColor=none;" vertex="1" parent="1">
                    <mxGeometry x="50" y="230" width="290" height="30" as="geometry"/>
                </mxCell>
                <mxCell id="14" value="" style="shape=stencil(lVnbUtwwDP2afdXYlq/PlP4HM0DZKQUG6O3vK3frJZayJ83bkugkkSwdHYkDX7093LzcHYJ7e399/nr383j7/nDgT4cQjk8Pd6/Hd/l14OsDX90/v959eX3+/nR7+vvlplv2X9+ef/Qn/DrhWqXYOiq436crjmL6e+Hzyf7x+LS0L5T9ZB+oZmDP5HmyT1SAfa3k02RfyQVgHyjN9t5RLZcBJVMJMyCSiwAgz5s99oWSvwzIkeoc0uDJu8uAVKkpgDwCAZicAtQRhnWAo1QnAIcR51VAbDotOFECYRWAm8PKFZ5DrDqsUT4JhFUARQESefyGXGaAJBc46Q6Yc0ni1kCydkCcATzK4yJAVUOmgM7BAiRuoB46YD6H7IlBLq0AGFboCiCTq7sAlXjD6RkgNfgvHf8XEGCJrgAi8S4fhEcC7wIUahvZqgCN8q6Dq3tPWshz3yfVOK6s04wf5XIGZGIEEDKe01v434HUyGEw6RnQqICDy4XKXKLNU0T9gSnNTksLQ+ldJTcVIFICNFPlk2ZubYkqeIN3jtzsdWuUwFFLV1ddWgAZtfU4aGgBQC1InOCiAQ2UXBH6Nj40dHJNK4dFHNazqWnC768AZy35ysF4jYgmUosaUFAJeQr2IBB/u0FcC0BEdCw1bHzYoAHfNAD10XRWbAuAA4AugEyUkIgT8o3mkxxIpiptthoAkqF+BHHpNAIUrWcEEEBqfCTC8uAADfTb5g2I8FseMVkmHyhqocZmSg4RjTQQRce9gECUpM2yVt+4RoXANR9jGhBFZfO7oQrKg7iWXiMxEDTRtDORXKrRaOkYvWEvgFmPENIiGjjq0LROFEZHySQTRlOA86S23oSaYTIPffDSSJUYkHMAb6iDhZZaAGQGD8W2FBsgRk6Xz4aasfZYLll7rMeM/Ybgs/ZYUVp7LFmtPdbE1h6LbmuPVb2x3xgbrD2eS6w9HnyMCNuYrIz9xuhm7fFsaO3x8Gnt8XRr4rMxPov9zCgb87nTUn5jAeAozPywsWFwlHetMLzeL/QdCVoXjLvLJQyoL9ON5QlodPFJj1/yiSih5XaYPfaFIgJkLdT6LgykaI+IeoOjCnKUi+6tZey6LullPzeNNPTCJUHO6hDgOjKy1oF43SnPD9qe0fdkPXhJ1gJ7KUHVxBzcy4kWV4LLwZQQigpB24MclXE5a3+RnJMWEfT6GNnLsKzkH/6euhJP5G/XJGVHPEVWsf4edF59/a39Rfmwe72+aS8/Pnb598fHx9O/Apb39e5fLp3+b8DXfwA=);lineShape=1;" vertex="1" parent="1">
                    <mxGeometry x="122.46437427151506" y="288.7844414499888" width="0.5636214578632076" height="33.87935606790774" as="geometry"/>
                </mxCell>
                <mxCell id="15" value="" style="shape=stencil(7VnLbhw3EPyavRJ8P86O8x8GLEWLKJIhy7H99y5mwdGwuFML3XLwTZrtniH7UVVNnsKHrw+fvtydvP36+vL899338+fXh1P44+T9+enh7uX8ir9O4eMpfLh/frn76+X529Pny/9fPnXL/tc/z//2N/y4+Pliaule3v68PAkmt/8e/Hmxfzw/7e2ziW2yd86UIhyi8XFy8M7YKhy8SWl2KCZl4WBNnB1CNE0syRXT8uQQg3FJOCReUnImeOGwvW9zaMarL1jT6uSQsynh2KEZO6ehhBGFq/YIoZvtsSDx/sxZq9FEkYRk/Lz+2owT9qgKO9m3JNcfTJ1T1orJYv1h/LrZVxOlfaD1bBG+XnSmLfbZKnuqUdg3Ye+4RJ21xkoH6kt8oIo2QxNGtk/x2N6avNhb0QLWhCUBQSTAGjcXKBKcpL2lBGSTRQHBnt6fTJH7dbT+OJDyIJ68X7xBxMebMq+/5pGRo4aZ31+tXE82bm7IEk0RDVlHNjcAqqMljhDLzsSREQLxAecHIGyYiIgqEI1corHqnkmmzk0GXI8ipiACQqFQJeq6ylkD1agvoIwobcHKTaMu7Jw3QHd2wiEysgOLo/pCZmjxGtrBNSQR4KCiFDyDNZbUxJIC2Ia+UEdmrjsAPOdNBzcI63r3gA/msHaNIJYUyyIqqqliSQkMPgNwBIaLJaH607ykCBJVFFvG+3b94ARHZTtk0E62KMzOYXDY5gBeVF9InOmURqCvO4Bk5ihBGFmx6eJ5D3mrrusOCwhASWWRh4KenpGv2FFd15HSDSDdHLBpAcWQTm3B7iiiVJFXIgfdceBKwiWwjxeZBhmnxUHpF7A98UlzEvm6HiJB4mUeuiAiiRfloNAdaElJQiUcCnF0GSR25EAquGlS7GGdq/UtboeJW2RbVonL3A9dt4l+gIN37KBAAEHkPUAbCGUFB0dRwuyiHNAPJIY18uFnEictSPEGh0C15E3QDkQoKG+vaimPNO0aKKpaKmP+2LeoriUuPiuJHQ5cGk5K0DfFv4uS3HRbpp4w8PxAJK4yPQ1sO/pEXYrpBjBxXMuA26MwVUp1lUTdy5+KqcnRBAvgzDUNfe91qGWp7xvqHjxOWGnlkQcYivC+InGivkvhKPVXiNooy0QDGi2i+orjERRPihYb60wj9U8aEm9ziLIhMPLUOUqQMyoP/RiIHIokiJRNJEkWJZJBsVHHJT2XxTZ4fCcrlXaIW5p2wlX1dBfCcx7wJIslQWpTlPBEkVzYJsnNIUtZGZbEhSgHCAxBkRyCLI0+gEd2UAc4fmnRkIY4OJot6VQyekmjrvEZCKYc1dPrfJy8iWLTmMDDvOmEVCqCCON9u45T53rO8aY7LMiD0kLnIFVSVuX26dJbQQDv+IYO+H2Q+fsg8399kLmgCjSePsik/dYsp7DA8az6AinyPF+2K6iDhsx003FjnGd7IFBQGGeZa8DRVUHWchnUzzE1ilILRCtDCpxm+vODTI6YoM5fQJibQolFe7k6GvuIzdjBSpHgI08vTq8ojap8sw/qHnKhJiuzBnsCXjuU2JE9rf/G+X/mPtCw2Ou6sb0SLIVx0cobSL+MFPpAqB9Lc/wlzxQeu5w8KYQ9iUYvYdcvp6NBwvq7L75v2uOPt1v2+/Pj4+WSfv8738rj0eVGP3z8BQ==);lineShape=1;" vertex="1" parent="1">
                    <mxGeometry x="119.12332320145265" y="286.40142685168456" width="11.17403348325733" height="5.9767188332665535" as="geometry"/>
                </mxCell>
                <mxCell id="16" value="" style="shape=stencil(lVjLbhsxDPwaXwmKep/T9D8CxKmNunbgOH38fbk1tF5R60F92zhDrUQOh6Pd+KeP3cv7diP8cTmfvm9/7V8vu43/shHZH3fb8/6iTxv/vPFPb6fz9tv59Hl8vf79/jIhp6cfp5/TCr+vcY6ZmKcw4T/Xn5iS+/fD12vAYX9cBNRMNXR4TyEDfKDiOnyiUABeyJUOX6im+/hSKMUO74SCgIBAOfUBiTKDACbXZ0gcJX8/IEfKfYokE4OcZkeh9jkVKiCpKZPvt+QrfEPy5KQLCJEEvCHOWW8B0VEEWYqRQl/nmClEEDCvNxNDNwkCgq7XbykViqAOQSj31MieMsiSz+T6N+QCye0dlf4MRQsHtqTkjz01SqIC2KpUq33hKrfarwa4TLE/Q/U4QKj2hauJGHWoLUOtkBm1rbbAJ5DUQhIsHqVIe2vAV1CDSLEO+ApoRBwfwcva+gEUgPywfgF4Xsl/AvtRgReLjyCfis8W7+F+krN4B/jjVvLDYH3tKINXbUI6Qb4MeND1ceB/aT13h29eBjzIf1mpl0MTloQtHkl1bfN0gQ8gn7rayB80MCkOfMigvrlJ5pL/QB9UbcZ+AesHK3ALD7Ou0sTDgStIqKPsh4YEG+I2VJYJgg3jBnyE6/NAiADO+yg+UDDnja3l7gm6EVwd3EjgdAAZRjCc9DrDak8JnZJoZGiJzczQOYw0cSJ1/wad9EjkfGg7XngJ5JN9aUZg4VZQW4bZ8i38EINDh2SNrDouD3gU1TkYi+Za6dcDgpUudY0OpFVdY+q1UdOAZnFSizY43wzekGYnPXvrhNV6GK/TAEIBse14cT9IoH1yHS4UAh1X0XbpK13gwC+xXTduVyiPr0T2OgF5od0ofYoYZkjxZuIosZBecNPzG17A/qsKsBi8Q3jt9WTw0MB6ez+bLdK9K6xxCHje3PzzAo+v1GKv4AzkUf3GgHegySZ/ZfMp6LzVdjFDbZzGqeUPujU9/M3hPwL04faJ421/OFy/kCz/bz+J6E/Xzyn++S8=);lineShape=1;" vertex="1" parent="1">
                    <mxGeometry x="75.67389383939175" y="338.77127283273927" width="1.0714197013413695" height="9.287883460210777" as="geometry"/>
                </mxCell>
                <mxCell id="17" value="" style="shape=stencil(lVnbUlsxDPyavGpsyddnSv+DGULJlBIG6O3vKzdjcywny+TtELTHtrRaST47uXl7vHvZ79i9vb8ev+9/H+7fH3fyZcd8eH7cvx7e9Wkntzu5eTi+7r+9Hn8+35/+frlrlu3px/FXe8OfE85Rjg3E7u/pB/GU0/9fvp7snw7PG/tENUz2XCmUy/Y+krgZECmHywD2ywpMOQNApcwTwFdidxkghTjPAN0kWCFkcmYFTxEcOkYKMgEKOWCfxC4QyUdgX/vyw0dUwPuzvi7NByARYF8pzTFw0EFFKFh7B0hUEsVq7UHESrURczDC1VMSY5+RvVCKxj8R2Wt8s/F/YmCf+/G6fSCP7JWhMx8SeRCvWru7P/iWPLSPhg9KCBAwBZSZcD4QA4B3zh7ZZwrXITRqBShFHcozAIEqCltZAEoskDctbjOPRKiiwEVLVBWbBDK5MtU5EkG5iM7gujIMQOlkP587mfycm1EoAnJoMud5S1HpiFbQZJxXSAzTLae+gQEYZeU8QNNr1ousCV2BQJYFEKDipWAVI2co8clRnA+tboiA3zFZDW6qCbYUvfWSyiZSjZB6YR2AAlcIWmpnLim7ItB5yT1dBoChUApbt9YAK4MKl8zK17QWtQvBZlxNUPtUVNIsMxVHWqUxmxUqVeAlBQS3AABbFeDCAgBu9c62PApI6AyOQrUAVNH9KPgbACrRDTDTu+Ia1LZULIBBpP2o4ZvAITFubl0ASJc+iuAV1AgWgNTbM7m6bAkdmknKcmjEJe4ZvHGrIC9pii6Bg14avc6WGnhLYeFSAEVRAbysAL3kqSz0rkD5Wv8+r7BpPy4hTN1tS2C6lvUQsAGyTVn9ZLRyZ3QGtYktR80ZCvarrsAWgPpEBSRvAQ6xzy2Ry9hL3jYbLeWQzlwL0ALh1xIE4sCyqEDo8815QF4AuBXQMmrmQ627qIyKdlhrZQcpp62An3NUe4cEqBFir1Cb7iSidsbZLZUAm28dor1ZwcNeOmpJM01foYKaPvX6zNYcYd1NeVlBO13Apextw6SjO4Mz6AZMzUqYfLnYUT15qPeF+1XEaO8TLKMlkpgBQosSGiBKP+IYUTI8g3KzznEIDOuuposzt1aaUgiwtPc6yKEbFk35MgN4jBTnAYP9m2EU9dIKyDOXVHjg9Jp6i7eZqOGtw7IlHdpRl6gAU3dVPCsCRNsw5V70LsWtzIGO8BahEWP20cjYS8wz9vjqsEmWvcf55J5rsUctq46E5v6A4TCj2W9CLLDc6hTMJnF6Ob0keGZuyLBhaDOroRy+2NNEL+bWR2DdkWrVSEktCLCUEdbShYot2/FNnYTuDnyynR6PU52PAiVz5+Nh6Vzm+naphDZkGxjBM7Tr0+nWHrjU9RK23Q/IemfbebVH93RuuRMT6J+l/xKc9UuSNW2H7zclVturAv1jpnNhqOzOXripvQD+OPuFpLV78P2WPx5m/bWfeD6314eP70kPh6en0+eo7f/t9yf96fTtSm7/AQ==);lineShape=1;" vertex="1" parent="1">
                    <mxGeometry x="76.72954760559091" y="337.01453141116866" width="4.635833086146148" height="4.421283736119558" as="geometry"/>
                </mxCell>
                <mxCell id="18" value="" style="shape=stencil(lZzZshzHDUS/hq8dtS/PsvwfihBlMSyLCory8vcGzOh7pxMzp6036qpzuhYUkEig+kP97veff/jt44eSfv/65fPfP/7r049ff/5Q//KhlE+//vzxy6ev9q8P9fsP9bufPn/5+Lcvn//49cdv//3bD/6k/+sfn//pv/Dvb7h0tO6gkv7z7Q/zyPN/f/jrt8d/+fTrw+PlaOny+DpKev14O8a8PJ7Tkdrr58fR1vX5fKz9+vl1zH19vh29v37efq7lK2AdCV5gv5fHBWBLUGHGeRy7XAHzaDDlvI9ZL4Baz1V4vgU2gOuitnTkDADbheuqtsmAcYzrHHo9NszB9iFf5zDSudDPAfso1zmMcRTYh2pTvA5p5mMWBMzrTs9x1AqAfKTrSVgJTcMARQD1/IlXgHq1pdWPCjvtgKt5r3n+xEvAdVnXvhtSub5hp9NYXi3rvtrSrkeH82CA2q6AcSQAmGmID9h2RGGnzfh2UsCCnbYDOa7Wuvex6A12pq+AnBJPYpwH7OEVk05QDxuxedbtaDKJeZ7a54B6DFmmfnQClGPJzpVz818BUrA+BOTTlb4BxjnI54B09Ktt+JGDA2HOdYsX2EeH+GaAKn7GHBN4MosfskqzYkg0QBOAHTkKQUtd31gYIPI8VnCund4wzwG8Adq5bq8A/erJRkXHlMORG+Z5CLDUlrotNEV28wLXIXU7gwAwW5IQZEEu0xEtR75aa9u4rHZExX23fkwy7zfu9QbIJz176VyvIaiOcxmeA6oSplqOQW+wIV0B5m4J0MKQzLVRGG12XK7nwf0IGJ8v4hVgh3bApI3tLGGJEwOE7atYq7G6DoAeuEPuOKReTh/xACBi3GsANHT3vZ3G/ABoYHy9nxHtAVDAVRpgTgVk8Et2IHt4A/HQPo9SFEDu3gA7DolWaZ0k8gFQwbz71nzJ94EymqRn2gB0RA2wJAfqmHGYJ+1bATikopTMABuOqDl3YTN2Hiq9oZ6++vEAgWlYvNE5DOSho2siaoAJR9TzixYAtA/zyaQpTo83mvo4aThABpA47csK1jq25jS+cQCYIbs3AJ1pS6qSGN8bz3wFkLCbzbXBxs2iWZNLArAP73neu0Kx4TjY8/n6AttnGlA6icgbDzhFi1eboDSATXtq9l0xNJhliw8rmHuPpvSwoJ8fRUl3wRTRM3k5mieHeOlSxYRwPd3Jh+cpKPSQjCELs0CoLh5zDIu0GtbOP7x6Xo89OlML/UqQUCoxblGuh74xU0jqSjvag5EdWc950tZXz2fZr4REuy01uFxR1DO+pvFpoQm1oUTb14je0NWmK+fzrZ2k94FoF6KQVVe1FTw2BqiyzRvDvv2eRA87GZ1ocHmSg2UaUlH1dgzkawbQbDuh9uncX2yv3S2rONM5OR1pQWJImKmaaUgEXAX9uxmfnP/FRNvF1yADkkxiB6iJrjIxefYjLYB1WtcrHyMihuuGRLSbBsG1OVkY6pUMkOkNQSG2OSyOa6kqgPJ5C5wr67ImopBTnYBtHJKjpFLmqhjbZiDaK6O6OnsQk3gf7Lh0AYwz33gO2EeXM91Osf8pwEZc5UxnVNBcwrsOyYgxuRk/X9dlNc6UYNK2Tetqreb5KFlY4wzhD+oTpYUrylXtdM/PATsAMlqrS6nXVfIwCaaxQwHEQwwBghpb2ZYMsK6er3YsHu6i+bzXH8D4DNCvtmTkhFIqA0whVw3Z7Q4it9E3cgIOCBVEinEGGCG1pQgUJ50b5sIG0Ey1IF/yN4SyKSkGPgfhuBNJt69S0mUdtKxVK4iWtnUaUtUh1YIHaDcNKHWhiLGDIGZkgspEBpAT57ognbih1WgLkxQfdqAOg5MrA4h5Dy5n7GfViUKTXlrvtiBGIvcOgd0iENXsDSDnYXJpzEttEqczlmR2qBKtinzJAcJmOkqfD/XCN8TAfMBLksISF7vvfa7iA8MigcsLjFLfy+wrV6hRFgzUZn1C790v0JC6ap/uF8i+m8rim4s4NgCp73lRk/YhqV7lzhD2wanA0mUlAcrZv+wDFwRX1XqG7TSl7JbBJLGliZO2HElI3+IzOndonmhMK6fa0iqofTogKYB4qAGkALK4l8gBRQHI1p+9gSLKkzlk1Clm0MZsZ27moB0jCdUrzwdKAPAcREXwIVGKMrVcZwASNA2wwj6QwOSAoQCS1GYokPtO87JqfpyxiOOTljcU1FpmUIn9PPAbpARvAKoVz6mR3QH8Bknk1lvn2UtrDQCKuzMqIflULl4CqgLmzRENAEzZQwneje9m0qFtbPM+aBdYOlOKlxs3FXB3RIPmdeMEhLjeu5k/Cdgqei9uG/MRB5EsE6AEVzlOkfeViqDdSm+n/JUokELYTRTYVyAnCedg/1s0YPsLZhyhkmtcAxlZ03aOO0BXLm1DIs+3Q/+rAWinnVUuXVYUBUK/n23cTcahqlpHruHMWHa6suywQj6QOad561B8yGnItxpA0t3JnT6RrLtud5MqBvGeOmx3YDOWWyJgKNcYhYcUjK9PzlC6asCdmcAO5YHWzz6BV7KDhN26zkG+VEJEdignuX55poMSQp1vdoKl1FQycm8DDKnZT55D1nTgTpHK6r0zU7hdQqMC50DveeGD5kXe2wBaVGwsw1XlS3kghXtvhH5UBlnzkipkYQ3Y5xDqnFQIiqtUJttSUSpdb3S7sHG1Y3rs1np1AnXfGZ8WRis2p3q8ub6h3WS7od2vZ2yrscA+RLfryMgsQIlpdC7uGteQoGiuEt/QdFm9VksFiGDeY+MNDGfa1znMgsK3RTRpAvNq1U1aJkFxofZovzdCtkvV4FmfpDQ3DVSx5IfdMlOFb9tKYsYjbJxZF8WHEdqQ3+33KcBNLbBKrAYPNW8XpKi4G6i0F5+oEzTrnSc/tNQosLWpaLHXaEtLTeumb3kE1WEiDTWioBXtm/6LdnLIR1YJxmd+TjqXXC6iN1RV4SbfbmtF71MYScQhhe49PyHUsPHWy/3ol2ins/YuDFalfUjBGZN5t6Jn2oyFVAfvUpG2fG7Z8gAlLX8dpfgWWhH8FhQNKZSaSmXA0Ekb5yOZos1QI+TbbW2FC0ncFraVmwxs1W6hSFPRA/Tgugt3p4fLdpwZ96J9pgnZnj2/9XkSA7wPscnzVJiOfY7c0hb7KG9+Pyj2fJW3L42ECZs0RtIyH7cVjtBHyY1dI5SKEnfJD42zrNWPqbIES5NGt+S8FG71CYpYZfk263ga+qAZ+hS4TcGvuYmqcsaGV8/r1WvesBkuBuWCTTgz9HJkvrbsvejh5gS17s385GIQhT/bNB3SRMAIbT6WRNId4bFD+zHffvXmKrHTjY53BJU+c6bgLQZFARQvR9dryw6gXr+mKV7eaBqjhiacjY2mI8g27xcM/09a7k3LfG0ndjnjkN781YMtUTLfoy1NvDjqPZcBcHN9StSwzF0NPTrJgdnOkytgA4XSPoJWxff+PXVfCiDi34PI6ADahxB57gBVmxRuLgbFOwWZb/z6pQJ5A++0sS/JzfNk0hxuLfuJ48brHdQwIgytqhPwiEiN15ERDiTNNcg2lTlPDXdxKl/WqElJmzel8bcLeshF8GMHTTfOmD0tq9EQFbe4oGk8SjRDM3hiJn5d93ri7JST985Lc8LOrU05CHR+SZIBsqyDE+H3GykPeS1+SGbpKjlh5O/CSOnayARlzgboQaAjhptDF9vsWOZyxixvWNjPVcLnRbxMS4CiPWmLb+PFj1SshY3XfvsulEzpfod/aON6RHe9+5SHbNzu2BZURuhJ4578MtXd74lupoQrWN56SoBwydHmQEGxbM1OdkXjq0kj0OZKQ409aQvrADVchFuTvwAUCJYrevwGbbSouEo1aQ60EoYsjzci0A1UPcozJ0CssjxzZHS/1iOQ3K/NSB3MvOPdCPLeJXxzq918AShrQ2TL2BuYt5ZXKl/izeHTBWXh5xdy+NBG4RaCnHWVPAeCN6xwLbfzPeFAQiuehvB9ocwtDUVzh41tgSlEBqQxKXROYkdTCm1fKP6n0AqEUkwKN82QncfWbzTO8PjEElXS/H9iE0bSVuCJhZf42TVUI5K2F/FFxfAJnokSbdLOuYkK4Z/8tOHt4/aP968o/vTpl1++fYTx8f/rVxftT9++2Fi//y8=);lineShape=1;" vertex="1" parent="1">
                    <mxGeometry x="82.50756571954679" y="335.66355535087126" width="14.154445886527531" height="6.164784970196958" as="geometry"/>
                </mxCell>
                <mxCell id="19" value="" style="shape=stencil(7ZzJstzGEUW/hltEzcNalv9DEaJMhmlRQVEe/t5ZpoEH3EQfWDsvtHts1u2uIYebQ9W7/N2vH3745f27FH79+uXzX9//4+OPXz+8y396l9LHnz+8//Lxq/31Ln//Ln/30+cv7//y5fNvP//47d+//LBGrr/+9vnv6xv++Q2XthkXKIV/ffugbKP/54M/fxv+6ePPl+FlXob3rSUaHtpleExbGq/Hx6336/i25ULjy/X77ZMaaXwc1/F9qzD/sM10GZ/L/g0vxrfr9pS4hUzj63X+pW+94vhyGV/zNmF/bD4yfm4N9ids/Tr/VrYScH+u59XGw3nFehWfuDXYHzvfq3T2siU83349327yg+Icr/PvY4vw/WmrIv5zn+Ht+Lyf/j5+BNz/vFUZbyuC8SaNV/kcaetwXqbc1/0Z9ouwP3XrV/kZZcsgn21rQ8fP+Xp8V3kbdcswfm4h6fhC9iRs2QFoAdHkseoKOkl0VhNnWzrApMSiNmscRvUeULdxVQITogGHHPsWr79gUt0bAMauJCe1SbSGuVvZA5BR75chum5rm9uAc0iH3B+Aunuqe0BS0WvmCkA0TNfEldW+BTgHU54UrgA7ODBeBujeusPBmbqlq7QW21YGVPFPc0tk76ruUrZPGNDlFxJ6qPUL15PO4WkNcg5pbAmkde3SVVrN7PSHc7haMfuKQNJaVLzfDNsrgPgRs1SVdinvLOvYJXPktEt551mnkybLvcT76kpKY9HIuq01s3hndT7toA8vAVcFMrYQeNFR3O2hg68AWfz/RNu6tlUcHFtvAwjjGWY16KTNYYq5n0iplo++buuMyJlNmGXRM22DFKjtu34ACmtc283WAWC3u1j1VYFmY30YSnxmR2Jl+iW2dY5dB++ZVVTbagASDbNzYyqAdslCgxF0DRlkKTd17LatpEB5KH2bmelhcGswBg46XZIGYMO2FUxlcabS+FIjBtochTuCrHtA36X/0Gn208WO6arTRk6IzRhgCnWYeHBlahjWmLYaQOOkiHFJDbuoncgJ/YIBxAjUw7S9BEioapME8V4A51DopA0g1tvYDHGNNYHrGix6jnwOEm6bUwywBgOIMc4dmbGJhqioATIDwpX+mA4WsHwm3uUqS6ZSKN7OapTDLLwCKG8tGIQWR+HMsVNSyAAS1reOUZYtsUseIO888xVAdskcOzEyAySJpMseu78CRGEC5h9o0Q4wj+zGK0C+Ltr8NHG+G0DG7MQCZAUQ91675BwKOXa/rTNjAnDtUlMAkfU36T8D+OBCVACFx2aFpltDp5POO506L5p2KTsmkPdE3ytAdydNJLFkDcsMQImxBXBTCixLuq2RLV/RXJ0R3UC7VJWGDovsSIF8Niog51sOyqUP0bb2PWVwMmSURDDTK2HZioEI4FyWGWPKnJgXbVfqYL9JDqXG3Suf3C5t68piiI870mz3ABf4PSQRanZZBzZk1cXTRt9JWpdHkxB/bon40pEBOFUCKGgyQL1u68oJMEAqK2+5lHtA04jdQkFK7q98VVEALrpraLnCWZDWOvTgngBzT+efppTh4ExdRIFW/AtraC5BuzJOcA4tqalc4SxNKWsMZKIxKent2IwJH7F7ixZkl3JA7t2aU9GE3NvMlqRaMof4BlAVbTt9vwcMdewWnZLwGUBylYsZM0CKAxadDjo4F8ctYkrnMJXClY7lQwMk4d4Tg9cFkAJc4l2aLvA7qO9LgAR+DTMnK7aVcGBgUs0AYpdawFj0ZtEDWaUBxLGb8STu3YMWLMzrURauR2WVpWLh0QDDhZa0rT1pwWIlkGhKec+InewSZR2MuxQxZAHZTK96DtFsK8iSAYQZx6OgfQ9oqtN9t873481jyblhTtrGS308Ix3rY2ecxxahtnXn3yLGrd0pW0CX3qf2D4Q9frodP1yZLGCCfEQViYfxScO3gN55ZN1P9lPDlTUiCtwoStAzFmZW8Va7VagIYuPnVX4acufRVCePvPT9eOdmI5dmDSDkPGa0dGNoujS2J4CUlyNXWg0g0e0qHZFQzD2cOPEjSiobQMj5A5s3wBTjW5B2zqB6mccTQBtvEob0BhDqvBLZoAoWLQs5LxMz6W9VnpNPI9ppgOryehWEzwAaezbsbZjOCZojJ/s7k5LCxgbJAFI+MH6Pu5T2kOgEmKAPK/MiRceEOj1dimtFELToqvrQuAlnukCvJaSds6uKGiDQoqfa1Ye0hAG03SJgmd8AwwHI8i3AVABRZwNM2VauBkxnNRp78xiCZqBaxLBq3tVxyLhORwBaYrMxd4d5AiRedXfSRznfJRseQNI31Va2hCzGAGW4RbP0CY1Z28ryXfzBPUzJAShEXwBnZ8jJrV2SXwiYvVmAoYAHDdIOp0cdlUTGAvCi1c5w4WeJt9slisOmK/EZgCKAex2llt1bM/Cwal1EYqc1leW2hHmGdRBOIdKDOf59gO7WkB99kOv0pSzx8nIOQNx7ut5UA1D6Zrpun9V8TCqXdjJ/WjS69qgp2bWtTOIkvm0c8C0SJ+mbgQ2wq2YoJK5j8n0GDWlqYbMR1EHUh0UH5WSFO5YW+5bkCnftG0CCmpLQVg7n5PJEaV09VgKo6BUNoAnTuHdUvAqbpKD2cJXAAJJ3W02AtOiujGlF67Ro10oQuTdtta5dTzoWzk+4fE+MWJxdAfjVVE5MKA3Xy9b5+13PVcMa/Ch6AaRgu99wSbqMPHocOb9TQoMTMiJ2CbO9w12ISLzesBfbT+Mp8g5qtJnqddcJldApdNfAnzBO765okLGLYyUApUmJE4bddXKh9e1OY7jo0ZtTyYjGt1d3A4pby3pRf7AuCTFARa6hA1ndc5KNyXufyatUeHG5cwr1elQpNQdC16xWOl+cYMQKdA+u2b9hv4QBNFM9n+owSkYil4aGu8s1uS7pdGEVbh4ARRddHqYkVOG4rPK//kJCz3+zhoAuqrl0ZulPRUBNEVckhW24ImDmknXfu7YOQNzTXq8A1ekDJblW9VbaHzoXY5s2iRjdwZNump3M3DTVHP3PnJdo7ppTDphsXNxdXMODxiXXkTGwgNb8bdHOvxA0kbFMJciSabC0sa+CA/XI+gaLhrJk0cF0v0CmcvUNOwA2HLn+0tRQ41aji7vAQ5deVytNVwBlug0QXb8EtjSVvSXkxOZJvFfDkfA21oeanU43JOfVXSfIE2ulBtCSdcZco7lAsRoWt2HTVLhpDKY7dsX1S6wsGmhcOW7THoCxs497gL+6+NCr3NTcL8rLzc1ycBZzUBi22hSvdmlMbvH7o8/3v4A/+nw94P+uzzdrL9qSVjppZ/me+t4dYKVC6KRdu+jgHqh1Dv5aPsuSWL6enwCyBuNoeNOkaudEO95ueAWQRsjKTx2U5nrRBjdoN1fC5gue62rKFZD5VmtxzQqZ780aQG8XV6yEFlcpyhVZ5erPizolui1Tg1ZzM9e8q0+XBiaJQRddMtbtDSB2yY6SQhoDiOV7u4D2EnBdQ81YWqpBCxTGMx+um2lNMKJ/eIsLD0Dla05T2b2F5JPEe2g7ROfm5uJ6ZDvfX17kRCxf5CkVrf4aOcH3PLLukpETys2UqFTazD0Z4zzVkE2+PG/6pSnfjiHN6u0RlzVQ+HLSovqcaASyY8ansuItIrk+9smJ63S8e3NaBMU0FnqmpAAqkr91hx6Ahp3yyYVZk41rKmoFjDsQFVi9/TIl7ktJWdPjgy+drlY0UYiHe+HujQHjDvjWQ9qN9Yk7UCvBemhEriI+3J5PmhRYGSQ6uOSS0hzTrCm5pxsoGE3J3SFtWMFeaXoJqCeajXUO7soPBXL+pNdjP3Rw2ZU2KsZl65EOyVMwW/fvt6SMpC85Dre+gmSpqulLjR+4aBo1pYcnNNzl35U6oXNojv8kftWjqSHLHFCvNbhiLlHjda5CZ/giuX8hpjw861U0aqpckH67BnXmPw/64Pu6SFqTu1PN15aSq4l0bg9afcFCZ/hxrzi0SbDzAxexa6Njn8iwohONkfCKQyzuuS5OksWs+jCOWxL3gKgh+3h4GytoNmewn56upMjvW3Q9hdHR6bqavc0Hub170YNr6kVpxiriE99T2j3Kw3h9Qy8jn3TVRyPdFI8lJ3P8YkNUamhRADXJuZag3h7ebNRkRkE35W5Qdl5vcJ2NA8NP9xRJK0gjg+tommitXYNfzRgk+eahjkmGoIa0BMxyu7tlmRmke2Mz8eMXLtZeEkI2Tv3rspL4hqqUxSIHnVFbB9mcJDVvhZ9304aegqXP5F4tY3rjOg04JPLXydgy6DVdTDj7G4AP3y6dHg8vwGmcUjCvm9S5FzTiLqQu6NmTSzChCbkZjmTp975J/DDc/nh7/vinj58+fXs9+fz/+lyyffTtqeX8/b8B);lineShape=1;" vertex="1" parent="1">
                    <mxGeometry x="98.54887742969763" y="335.8506801041596" width="17.30049667172268" height="6.67414098978211" as="geometry"/>
                </mxCell>
                <mxCell id="20" value="" style="shape=stencil(lVjLctswDPwaXzF8guA5Tf8jM3FqT9044zh9/H2heiiLoLSd3GR5IRLAcrHSLj68H57e9rvg3q+X8/f9r+Pz9bCLX3YhHF8P+8vxqle7+LiLDy/ny/7b5fzx+nz7/fY0IaerH+ef0xN+3+JSIAlTVHB/bnccOf534+sNfzq+LvDZU04d3lOoAF9JuMNHCmEbz5l87fCJWLbxRZd3HZ4pRYAvlEuHFxKwf4lDvp4KWECEivQBiarbDqiRnFlBWg3WA5iy7wK0B6hGVbfUrxAyRdAE75QEfVVDJY+SqJRMmyPFDJOQfoVYSAouUx+g1I2oc0Ip9wGFHNiStjr0ZVKyF8Q9ptInnRlygyuVntzsGx3XAwJxnwNr80EfcrZb0gOCWp0qhX6FkolBWbXqta9SmY/4akDk9rz5xMXW+/UAZ7kkpTF+NUAlwmypOipgBV9bm+aA+ZivJ21FRvkuoNEz9xf4CpgULFUnPGiCtyI27QfwyLXdLvAM8nUUh3wj6IDKRT9EVHIqqI+zkqf4DFiq+xnwHu6/9gpZSxtzG/XkYvEMCBQoZ4tPoF9x6G+B+aY2U5f7AfzRAzDsvwKpy21GLuoZkay0aizw6IDlVo0Ff9D4yOQGfAJ8TlYhFF+QBlkZnc4X4E+g0uMXE3GDQDIuAA6AbyZrmQA8MKNAIJujuxWLR7ZumPfaYAYEchS8xQf4fB4IXYGgeErO4hk8/9P4TGIKFBoH1xnhyRvfqJKIJF2tQF8i4TZq1zkaLIdEZQaJSrUqWgSrxOz65oAEZWjyP8ZNOPJghSxtrMx+JTfp3rL7xpqyUh0QowzSq5aHkeEX67myg7Pg7k5m38jkkW/UWdSXNXnYuDqMb/W+AXtfa5ZjO4DrAcmyVf17Qq8I6q77iaD8RYKnOXgTMIvmepX0wPdVUheGXJ0kayo8wxzUh5qkfYR9KPp3n4N30HZxsb5R4NhRdy+9BjBV9HJdrBnPMOM0u777yzVy1mkYOwFOnaS+y9AI2iJVpGLx6BVN8cZnhsaqdbw0F33/+ABtuFjf6+Hb04Q3DCKPbEW1Y1alBahdHN6SXVOzLXy1z0c2XPvFweBRPZUPMRq8Q/gw5otE4rMfl/6P14v7l6yX4+l0+xC2/N9++dJbt69m8fEv);lineShape=1;" vertex="1" parent="1">
                    <mxGeometry x="119.41693630240607" y="339.5618962063076" width="1.982974085239751" height="4.43353403945303" as="geometry"/>
                </mxCell>
                <mxCell id="21" value="" style="shape=stencil(lVrLchs5DPwaXVF8kzjn8R+pirNWrWOnHCe7+/cLrpbSsDnTSm6yzB6SQANoYHSK774/fvr2cAru+9vry58Pf50/vz2e4vtTCOfnx4fX85t9OsUPp/juy8vrwx+vLz+eP1/+/vapr+yfvr787E/4+4LTKrl2VHD/XL7xTdT9983HC+Dp/LwFFAllBlQpkQCSNNihiG8EEKW5GZA5IEjKMyCKMoATBUCQQi7dVCIcyYtTAjCzzlZSyWx9ljqvb/z5dsEwrS9SE1nvpc03zpKJ06oOn471SWIm66ukNq2PEj1Zn0RnUgTJbH0QP5/HLkQ8XNowx209O39JUvH5rpD1Ds/jKONyGkF1e34g50kqDoJGKnl+CtIK2pM8PxpdZj7E4cD99Q79lWjAGL2KB779T9j99UtEVomEn5ZC6vz8Jo2tj+J1tqejDrB/p3kDi/jCInKkqE0O8uREReIcwN4sSiI4LYQu40r7HsMEZGm6kvXGFziPpQDiMY8Os29YhvMjPq7rLYWRiA8SYT3PcFHCHJDRUfsnvG9M4sh9i7iZD7GNmrCfsaTOz7cQVXJ+s/bsr1THN/v29CPArxFmJmOAiDUsF2nEA0ZIcJllPSYNjJFxThKWVllWMUrm+UjlzqUbeq06ycSqRuI4m7VaWPJE5GGHPA55BGhzYFotrIR4FgkJdlCeG/1w0zXXBUpVix0/m7UZt4kfDADB08qoP4c7zOQzwUOj2U4MR9JRIY4uXWeAWsXkgACAMGrEkePK7AdTqp7RW7HGapbIyedghzKU6hG9/cwlk+eRBZBV7dlxqtQPpnMhpjuApe2AIXof4NICYKXZ6mpGAM1LHtOMKu1ADBACAhKrbR7jwQCMfP1IigDHuHQVE1fAHQETRj+wATB6+4D1wQCFkS+KiwuAJIFOvrocie/Qlh1oQUmogrtZGfksghcAq9Id4BGQGTUiCnkDUD8sQqzTm5sVk4AO8X3kaZAO3jnOvoBquG/BxUZd7No4IC1BzeRzD7nFTOkOYPFcYLnSo+JWpUWuKyzIlY02nX7RxNqoZv19QF5qVhny40iSIfsK1Q4myRJQIw/le1SzItA1civpkmd4r+qXWYRJgTsaDrS6iY3M5IxD7WByprFmyQ2qbQUTB3iY76QR5r8oNlrgqU/Rcc1xT7ehFDbClcZ0w6xRM28RK6oTE9+06S5jqLCR94VxKWOIWgPReL6HvFR4292rIvQ0fDLU08x8JGuzWPrWsf+mj2MVqOIgwBrFRtZnnKamSImUUGhYo5uIhcJo+zeNtGdOxtCxRj0Q5eOQRNaKMxcvwR8iba8cdia9QSP+csjRHnmMcoPBm0EMbSiX2XSmcjjhpM04HsjzC4ZM1w/EPm2MLTaDMNomXSezvzb67jGMozyW3dfMeL3Rvj3TULG3USQbDPW5ERB6iJ+jUSp029yeKSyTPzrzSA3lnaNpOqd1PZPAZbkvF48lY0a09Wy0rtgmODra7TXC432Jf2sZ4bexJ3uVYDJxJnQYGmmf/x4nwZH6q0Vs7RI9f8tDatz4zAa7Jk3qHF+Vipu2TBaVFjATVxlehThqINN7EQCBMmLnjWCk/fjOO8dEdYHWZdyfaZfWW10IykqzRO9/II22wZMjgC4AOrp0S2UyBL21LqWjUWnQLxEQoMxzi1jxd8ikS3AqVQcGgPmrAVg507bcQameMADUmw5gVmo4Pup34OxDP+gYMxwB8OWO0qbr99/a3wfYh9uPBL6cn54uvzHY/h9/VGBfXX6QED/8Cw==);lineShape=1;" vertex="1" parent="1">
                    <mxGeometry x="123.64501644337011" y="332.6992235334767" width="4.752886343400725" height="10.43605482858572" as="geometry"/>
                </mxCell>
                <mxCell id="22" value="" style="shape=stencil(lVfLctswDPwaXTEEXyDPafofmYlTe+raGcdpm78PWI1cg7JWzo2isCReC4BDeHjbPr1uBu/ezqfjz82f3fN5O4Rvg/e7w3Zz2p11NYTHITy8HE+bH6fj++F5/H59apJt9ev4u53wd8QxudhA3n2MG46c+7fxfRTf7w5X4oViMeLekwvL8lzIiwEEoVSWAT5TTAYQ83TETUDQ31al5EniMiDKpPEFoEoCG5JQtT7KjjIA5ELB2pAqOb8MECHJFpBIUBjUiValWKkAt9ZKbG+ITL5CQPQW4KcjlgC5uyFSBYFTQEm9DREETgF15iUHjGZ3SeZL5JgC4yusTlkorhhh3SSeKsiN5qYOIMRYpWAZJJUSVomt0UXdkACgULHJJIUSUqnMbEjTnUuAjtTiiFH2KYNsqHOcaH4nQEmNCllTyRqtZWMFkGpfmCr2UmELCLCSaeCcjbRyNKLAaWqEHpAxIJVepYIpJ53RMu0sEqgrrgGmxg2OarH0Kxy1RuS0ytGOQQwLfuOotVrzu6wUS5t9yqCKiyXbG5SjDDrElwFF+lCXQgIY1HqQBdRIAm7IM8ppxiNStz5qy8ZV8G+3amWYtboKbHNtGLDpV3UYALmh40bo3JQn2i4NNDwLNQLobDGrZKgau76hKEUjCIOOIpY+rU/D86OVDxWOGq73aPMxlGdb9QJTAVRw/TSmIUENdFYudITF+nfnc57Iep/+zNOsdZ9/ZMU9vftJQPbMostTOt2XPJhfXxz+V8V18f+d8bLb78dnyvX//l2iW+ObJjx+Ag==);lineShape=1;" vertex="1" parent="1">
                    <mxGeometry x="121.17398771858305" y="336.63826339274095" width="5.634925702764593" height="0.23966490669686713" as="geometry"/>
                </mxCell>
                <mxCell id="23" value="" style="shape=stencil(lVlJchtHEHwNrhW9L2dZ/ociRJkI06SComzr98o2osHpHEzCuoFEJab2yqo5xQ/fHj99fTgF9+3t9eXPh3/On98eT/G3Uwjn58eH1/MbPp3ix1P88OXl9eGP15fvz58vf3/9NCTHp79e/h6/8O8FF8y1AQrux+UfxZL/7x+/X8Sfzs8b8Wzjq414tx6PxZvlvoj7ZCEdy3tnPa2AaiUIQLSSF8CwyAlAsexWQDWnVOrTIRMQgxXxhKFAXQHNQhWAZGn1UkrmRRAQo7yqlPp0w21A4yjnZF0BusU1zrlbFTZEN0285lEyJwIHQC8roFrtAuAtrZGu+AkNqKsNNVoTRgPQ1jhUXQwAdAK0adVtAFJjNbr5mY6HT1jd2pAaGtBWoxuSRRtd4gposqRHHFZA9xZ0HKgeerTcZGqU1Us9W9EAcmuvllXFVYvUl5yTbWPU6FpyvclABOSaYyO66DMApMJuisKvAIS1qLuzqIoaT6BkKrKoAaiUrnE2kiMv0XioXVYQAG21oWarygZ8vQ6IGiyKdEWvbGvgSjevAI29VLJsrsi+SiPU6wrCzFpVynUqeRtQLaxxyEgNkUvJs0qpySGXKrfvFMyL9g0FqAvEbE0YXVBfKwAzRrW+UqysKiEds/ASujs9AdxBxQG56dY4+CAnCnpvXN3arCh5dFIau9LkHrgaoowaWlBciwFOFvpAvjqWV/p0pg1OznTIU1I4WWqQpwntZC1DvnuSLyIjNk39HdC1ATRuvaSrkKfmgnGuDciF5FUDhnyglNb6N2usfxf9GvJEhr2cUWPm7fRXCYcC5N/Pgh9Bnrq7l8wZ8mWd407S2vH7leSLsrfOn9skqNK/cbxQAEqfNonQ/yywttfnTgFHLhg1vyFfWP+g7EX+F5JXLXrUF9urBt+QJ552r6FQAwVZ1fVbdvl8x5+Z5Jv256/JX8n9dQxPUnhbfr91zQZweyBl5gVdDzzHDX3s70KhmnYNBWxLaFR2HQUmVxEycKtM27WTQzhnpgWxSKNBlWjKJDBtUcX4mvf3LslT7LPKN+u4ovrgVvSE3CRNxqJJjbSEuRgekVi61IB/RUX1+6QaG16t4jBuEGvgwNwl1a/cvLCOKzo0kn91KxievNQUNhr7jcrWASACWGZFHQEoDihZuTZW8wTQnBSAvNszg4g0VAr0hDqz6+gJvJjmWbRHADriYZP1ykuN22T3c6M/AuyPFlUZ3fi0g8BFFenOcUBqyDjsLmbjtKNW3z6pxPZ4pCsurZEe5yltA90ssCKp81TY0YUK/qVsuJ6Krk2g3QtcWCNdkr5Z7JpA0ZQK6c2nzqzPKBhZa6Sz09kaJsffnGsVa3gngZuDsKLZ2Fvpvhv1vo+pTBcF+K0pgGciDKuaYhpMTHyTN7zCRMMjCupuOXnaVd7LEeq4iVVJ5B2rXyexORCn+VwtCOV3W2aRZQZxqgHZu9wcSe/i6ojg+CZQZmM6EKeNtMgJ6HjEljnVb+fZjiRMMnYgHtlU+WpmxnyjuzDV83JQ5HL/i2/G7orjw/tLuC/np6fLO7zt9/zSDv+6vPCLH38C);lineShape=1;" vertex="1" parent="1">
                    <mxGeometry x="129.08520338668086" y="336.4991384845668" width="4.513433760610378" height="5.252861491132526" as="geometry"/>
                </mxCell>
                <mxCell id="24" value="" style="shape=stencil(lVrZchw3DPyafUXxPp4d5z9cZTlSRZFcspzj7wNG4WjZmOnRvq1W7CWIswHyEj/9uP/y/e4S3I/Xl+ff7/56+Pp6f4m/XEJ4eLq/e3l41U+X+PkSP317frn77eX559PXt7+/fxkrx6c/nv8cv/D3Gy4k6Wmggvvn/2+yxPLfN7++AR4fnq4BTbIzgH4MiEFCRUDyBKAiGUBMBNAkZASMP48AyUspCHCOAPTfsEOSSkRKTXxCAFNrdtLCCojTMvuAKM4AYiMAlRgMF6QwQJYGWvLSMwEUabCDk0BcI1fxbQH4Kj1SAFjaF0lMrRWdz6d5qkNAXwFRPPElBUS/ArzEmwBdMjODWV+l8fVhtYKqiMlTJK8nTlNnR26R42pl7hXqlhDONJqzlwyhI4FYLHUJDX+f+FAqUlH+RM6bNA5X/USeKzSSPazvxF6xYkLN4ok8mh7jet4ihaVTL2mVv82oO0rwkCe6NBLEur2DEPMzl+0DomQAROpBmnYShFieNtkF+G52qFSkkXYg6rtUtkNBI6iQjXiFpp0KgCiNmNlHs4MqmsSND6ZGqaFJIHgndQVEJ4mcoc8Ktq0P9Ahtyrutz1KIndWPYX2jnp1nXtsSl5fKIlniel4t6yy1R0lrotCqnsnvb+V0C2TNXER+NRisz9wlUD+5S2IegYm3BBrJfublbX2hmUgT9RqWpc9SdbAe+ETVTE38LWAE1I2GHdgLAqDWmcoO1gPPbE4coytTG9v6QOOlzLq+rU8zFR/EC7Chpr/Aspab7rsBGqXimiLCCuj6E0SjmrUg83bPXVSL62rjHimb0Dwb1iDriQeZx6zV8yzo+4A0GeIGUJ5Kwkb5Ffh1r3QHTZttrR69zdA7KuFYYhvfoc9MfgUoxDVSmp55dYbO+w9gCaqlwqk4isRbopLEgVoDbYmqw6Lc+qSq+4CKzHEEECtQcUq8Abacv18BHXKdkTLIodU3vclJngHapEIbINEurXezgwJYFe9YFhTAGpDeMY+NHYjzKQCSgAKYeyugOwSwSjUAtjSQM3jnJmm/QgR+ahiMKCBxAHTwldMdBRSzQ+U7JANofIdgRDoBOAOgIrWZSj96aE10Zgeq1oazmjPDNaRhJ74xRDLuyjrsEaPGXU/8290aQTCF+ECMerMDzwLVAnjIIXtTLZ0EdTV2YPRwP0a5mrrxDTbr2DlEvlVNmVa52wHZRFCTwAAOI6h58aSOtoR9m36TWeFthlfWuec+wOMIYwhJCm+xnCxSkZRtZGCuebrXEZ+pwGcqZa4p4czgPXsecrKCAFa04qb1bcjw7vFHxLJE3ILlDaWuHjhW46OViFVOASxIgzenLjRZ+obsQS3HEo0vODboW+N+NCkBvSqxZDNebxpd7Wo8ObSxdOt0rm2s0Cqfg0taKVxT2sg8yTSugQZDwJykrDWzyRC2WJoRmJ96cbZEE3kcTpBrmBo4WA+N9xg0EJ8zdWQMMohD6PpVnhLo9M/hRD5zfzCDtqwhQAcrkLCzP7GvN4OqwAcl6+9r8qtkfcIWI51cceDUIDbKwIqZmPPBXMN4jPyKQMkRTEY7LU/ezVKxASqftAWcYpzcomrOKmYc7FmI5Tkquxo405gs0mFo3jnAJOrxE6zYOGxHVEjHro4DNjyqNzaUGNe466HHzJoB6pR4y3SUfEWH1L9QgWLEwU2mE89YUJ5I5U9u+vFmZXq9maKxGZUnFZyQONpWpI7X2I5yU81TxcF65nM5opNuqXh/fcYe29Hmcec2l+onN6t/NlDNpv2NtJ3IpiFPUwFH6+EKonAi0ZGIn9wVm/V8wjbkAX16etm6A4h0/jUA5sL+TEWrSn3h9+mmt/a84VKAM5mUtfvqFUBIB2tmO9Q5ldkA/GYkF2QU4/EHu4TP5hFOmqPMo8jEW/s0WeRR6ANtP3uE05BFBT46Sub+5eRGdFwHFgQw3hKtSIW2pcpT8BFO4VdO9jFUoffGO8+tCr9dtw+6Cp35DbsaLbHBTkhYdMahGT1NGKLjqpcDkOwU2rCMJyvGcOwGZlBaY4fA7LAHcNwOKFLm10720JlO/nfUmifR/ajhMu27dlwj08br9teE5wD98P548dvD4+Pb28fr/+NjR/3q7aFk/Pwv);lineShape=1;" vertex="1" parent="1">
                    <mxGeometry x="134.88141933898336" y="336.13390204947865" width="6.9067065972765915" height="7.2384189022142" as="geometry"/>
                </mxCell>
                <mxCell id="25" value="" style="shape=stencil(7Z3HEhxXckW/BtuO5816pPkPRhAcIIYiGCBG5u+VKU6bylt9CozQYhbcwdTtqufS3DTvQ/3Lb59++PXjh5J++/b1y98//tfnH799+lD/7UMpn3/59PHr52/2pw/13z/Uv/z05evHv3398o9ffvz977/+4E/6n/7jy3/6L/z377i8bmk4qqT/+ee/jNua//cvf/0d8PPnX14B89bqEdBvMwHg8XsPQLutjIAmgNIB0G97HwH11isC4hvKbRGg3XaPgFwQ0MK05lunMdTbXhGQ6A311sKg063TtNb7770AEq10ufXjJ+3bpEmyKenh+X9+4vnz+TZLeL4sfL6m8Hxu8Hy6rRGeT/Q9Ka6Z/T4/n2p4vsLz+9bjz0/YETv+ur2vwvquWzvOjs1XhuWatxE2XLlVeH7E2bQ9TtM/bilHwVLH++f7/dcez6/7G0+ff8iE+/PF9hNsn3pfnMfz7S42Tp8vt3H8fpvhStvtto+7ueb7L7x5vh7nv7bbpO12S8f1rbaCsH9SPF2N949Jj+PvN5OJMN4U91vrt4TP1+P+aeO2QfzY74fvX7eJv9+P+6EnVAIyP73cCs7PPu7PXnF+8q0cz2/vt0oC/TbC9wwUtyUq7r5QvJk0P+7/vnE/1yjNR7rv2DfPz+N+HhnnUzSkPb/BjjD5EH7f1gu+v0eVbc+TeB53afzyfAb5M6N8sO/v8LzJ5xXnk5435Rn288bz5err+II+7yL4nT4NCqm3W6cdWqLK6LZpYQhmcoQ5tTOMhlkTgC07jaHfxtGSa7wKblwej0FdbGfNqJdcTjMgbAxTBGggz9s+SgrbK5vesOInlYfJ/A5Qjittp490vQOOK+3q8AIg2rhcjCG8IaG54o5KsNk36jOb1hkAjyP41rNJ8Q0XWyMOOt2F8jtAGIPbLLRwpiJ14chIGCd7CY38EX2nWthsmfdlerFDyE4zQA1H1MQCv2EcP6ltdkltiEEuDZYaJoWOB8h1A630Q/Q+ABONRwMEa2RW3Eu+c45vmBO9J7XXVkb9rAbMarj53EI9br410UL1zRw8nHQrBCj3ZXoACgoyA4QjuttdTb4DBJW1bWuAMDZAMBu2rQPsJbN7ytFu24s/qYrbu3B725FPPQIqA4IpaWPAQff7EF+mddFeGvd1fQDMeKNZmndb7bGXFlozJraC+bzqnXg6B+xbOW6Nue4W7Lm9mqIgmwVX2gCBohns0T71/ovJh28wi/YoKjuLewOogYWAeqetXrw8YiFqjXRfnbgOBhhHIeAKBXZrfbhRLyqL9LQBVCluWocWZatJqkWz1E5sjU6+UhMWlUWlA4QdGXBEfdAB0NFIPAXgJ9VIYLhxTdNao0IxAHGcVTnOjqLSZ0k+iSSfA+QNpNgNkIXNJqvSAfsPvqHILKHUaNH29lnizVdllsjLckCPgHHxhhEBZDo4IJjSE7lUH7QY6+tiWsWULnSA2p3teJEa5HAYIAQJClsCVdRuTWgZ10cc5MW1rDSGHgVZfbC47wD1+IZmn8RvGIHVq3ee5h1gBWO9o6dYRzxA7WJaxz2s8aLjiCiqEnDqCZlqm8Sodtl5NcA8flIv6HDUFQdtALL5DBCplsqickd/ulfWD1vG0DD8YjsnCLLe0Fg3wNwR0GHhWo6eYufzYIDgvDonC2KmSUjLADjoGpkTW7gK62CA+EkZbe/WIk1h3i4ZWE2P6EQyp43ItNo7SbY2OQ82b8QkNgki2/4lW8MA66iBTI4gWbzvGu2FVCN7yY984GYmeigGGEq1ECBHW8M9bJhWA0R+ad6n4R0gkJumdoniN8CSMDWF2g0QTGmPOhOpXqLdupHb7CX6G+zr+gjCkBNKVp+jGkdANIgBQhzQA+M8qVmMn0JjED8xM0NmgBVIu4SWtwGC7C4VXaaTzT2QmXFA+KSNPKIDwolm1tvHEE50Q4ZMZ8lkxga5p+tgepu8OF/p4+YzMUbqxE/08ZNM5yU+0WHh2vV5k/gG7qVyEsbttDVKFAGmwlDu1RiYcp1Hg673OO+L/iE7wM2Eo6XhoWVa6S6sRkfy1ABxHTqL4hHtgMYUswdvBVBo4ebJG8ihMUDwHgyAB2hJBJ4dfANsicahqNx3N/JlpcnHcj4sHKCCUmPk6Lq6QwODfgZ9X840hb1HjQfIxAzZY6OJ5Cto8Y1+QniRmTtGPEClYejbgxNimiQQAmNJcs9AuTTEHsscjTdAEDMbTcqZYoxz4LLZ8ym4lejC2feEEV9svC0Jffco1bsZDYE4pifGiozJQ3u9W+Jw1BIqwyFxvowi1ant+Ue+v0dplJE3sOcDHZP5HLdINhYUp34qg4mE2UNDWLeKBtIQP+/Bhr57PmocVDj2fIv7n0SvPR8YBvYthsS53NBmQRrD6Rw5MMAQ4pOcwlHElN+8R0uMr3h8kD9pHe2EwjymzWqScDolrY0aA2OVsxINEGapXgguiU3UgYyEAQJ/5mwUiF4/auEobLQThqRTt8SHYUQe0wkGBkTDoiAHaOIxEp8V+YJnPP97TZdHNuILgHhMV5liBhN/NiUf2QAk86bwZ42F0pR4o7O9pJVPw4ewW6cElVpGuTRbdAufNOI5oMe0t8qUxBzRn7fzQGErA0zxIykKNaek9g7MC5ozxuo8x4zGsOLWqBXNLwNEdZUxe3iKvWMGG2W8GCCMoSwM+awULR438eDEGWBIBIcCYwaIn1RwpVeWxLqEgTFPuTlu78xJygYIat1zwmClDdDDG/qdRnwLCG+oqLJOABywd4BUGmDma46MgdkaZDyffhK5tktKQ3LDE2eAGH+f/Aahq54J5+8A8QA1nqV0Z8BfbQ0601v0NKfIGEAFGe1WAwTXtmUW91Lj4vm7JPnEj2wTySQHhLBVuhp02K1Okf0xAHvbDjge0d6R33KA5CuiBhLTwQAU952SfmgACgScjGFgMMP1Q/gkFmQOKAIgLbolGshZbHNHm+8aEIN7k/X0jkf0etDB1rie1pCPcr1wIYXyemso4GLzFQnjErl6ckQLsuIGiEzmQqfJRGUWU5ryFd10CKx4Qlbc9UMwsAa6A66yJEBJ5UFLImkeoCT9UKLp4HmeNIZyT/V4MX9IGK8at4bpOIp0GSDmBS1MLzFAl9AY2ho1Bn0yV0WtFuO+Zi9RwMQATdKtiCtdTYKsHChekoST2Rdd/YRqodj1GpIyVrBieolLkzOvw5Q3PIJl7wCB7zKbj6iWteKZftbjvgNEuijxoHfMo3bKi9ZBdJyX/JKRuO9S6ElyE4nr6fHyPJWEpcg5XJRw7xyTonPCUIMBYlVwwvO2iyxbRqfMACFLLrM9toWDyw1DBwYIlkbuKIoNELlrZsi2CBn3ExkQnYGKVM5usUjA6xlpK7WTwh8SMltipjWj8WOA4GOZu0GZr1towcqJEwaICZQDZbcBgoarXO20+wm1SSd6a+5UQrnnlRYSoKSiSgMEldgu6kKXkKcJecS9TowfYoz3lhT+jeaVAeYfBYQQqAHI1zVA5BG51M4BwkmTF5dTigX2Pq9/GEFE+ZYgaOMM4S2kWuOuID6xNQIo99WXrgmAuliccQJ4IpQTyBjK2uKAX4QTtpRKO2fM06p5O+QDnb6BwtF7xzLjxjnIWzz2ynyrr0MVAAn8HVVK5bJK30sCIDN0Pz7g9ZDybtXzcLGXYpQmIRV/fkbJ89vCql0EIBwgm4kI1y2pB36CeF5jinC+Z3v/PwHWyaFGSSYltx7XoTHMuL8b12DtGT1wB9D+HidyBld6SDArX1kPSxUpDbrHT7ITRPG1LYWYnq1EgqnHEvQ6kWtxs0/TmwjQpK8N55q66Rp0OzcCMUDYGma6kqu4H80LHoDB21ti5mZ+o1FW4xgucru3dBfyGnMCFMnHGZi3vKV/S26Xnpl2RaN1yMK1cCBoa1yHu6JtYdUy9z/Ykrd80UbtWXD+ne7oEp11DQjsZs54gJZQug4ggmnFUFPmWgcDxChk5iikxJtzRmNjTWk2V9D+WVMqNwtq0TVOwpb4hiF76SLOKXUzuWEI3ABa6okEU5MD1NFwXZKa41XAzG6GAIR314ATt6RW+oLaWJKnlrnL3pJ0cA+MMqUbyZOCEbwTHrthrqMBQuTIuwlwzDwIgVquwseBi6+cnrqkFuHCqlxJsoU6GicePg5m6ELGyMPHIUbIKbxTvPzOGujPOOcD8GecUwH/enHOCOAikpMxXCYKhPQiT0W4mKUAeHRF/M51aBNF5dxSjc0N13xriGt5lUimfSsv0ilCqlrFvDANHxfuHbBSDAQVTt08SVXjXohLmlF6F2TSQElCEJXDZZrAxO1GPUXquJe4m+/K8Yv2VWZb7AaS7gv5FqC2PS2bAspVGlmsweASw5VjM4PMmTwrR9Pk2S7wHSCW9C4O7eZoedvWI9bOALEpHdcAq2lSuC/Y0trQgdmqapp4bIqFTOCvKseC55bqjYvmnZK97W2IOOM29Fe4CGbNKfzshcKa8URfdKacQ9KM932izwHaLPNCnbST8APmzgnR0h7h3nNAjU0lGjMzs0gRY+NBZ+kj3DC5aGojZFaJ4yzpkWjBIc09DHBRzxfyClrjAospdkBDhTXGSVEvLdxQLpSF8RBv2vcSl6HEWUrY0M1LuCQaTPXeXpMlR5Q6U55U93Als1dZHTdfzZjh4TVQknaPxaSaFcaVzF4Qq0nx/IYgva/LsiKAb4gYRWoBCxfrlMibcLjZC8VCqz8UMkNq4juG5Id0iWlcblu1OJHotyGN0y6KbbXBF6qeIW2XmbEfPfqHiYvcepx/VudefFrC8zheKZBOXCw54ylL6N6OFV10Tj4YOxYjc8LF2ML44vebigqSjjtXeiVZkO4YZlUVyP2lZ4oyZaNtNLZ0eSnIGQ7pbuV9vLk6Tz02lHIzina3gukMDKExF9rZQ+6Q8caYXAIc+md5GRkL3mDfVaYAh9w5cGHfjRQrbttF4xnJiHQaE0RvF8qjDYwp9SWZFuxqe98MaUBHGS9dcl+94RYBhjSwnmhndylJ9BZcBOiRI2mDe+E0SYdiNqxLy0fvLkIrXaXhSeduOzUqkQujtheZVubbnhd6vO5W7j4Vi0/ZEOlCqvgB4o5BgXq6SN7rSVIcN3q23ogpmJwTa7Z6kjTNwU2MUrQuvHMTN5MKnGHNKFt7Eg5jX31S7AZ60W1HNNbzfqC3s3ScVlcotPlS9ArzvBp0yM/KF12PktBbBYmbLuWtOfGVK3JH0Ua7uYs+WejieXe4aJdjv60S02O43KRru3huh1dOAul42ETCeKUGLUE56WiMzeSkp77fdsAtxkJuoxmT5DZ3YZK9UJWbyUVKcqG2amLu1YySvom59+xLew5YZ1QYfZJmXbMX3LSfF7dxbtoYd/Kgpblv5/KUJp2ln90TzwFVbgiqGBdv0vOlM9nWpN1j51B9kxSi3tGVaSlWLhmArOgmjUA776WqQeiO3puXEEjBMA26SveGzuxcnSd3jxHZVuWSzs4XXFbxoDv3Y6qSbflsGfkOEM5029hhqfZYZ9fYkKn9pG0gtvnvJ+QzttOWJlSNu3R5S/CQADqv2prH6xYaug61RbLNr6m4uAwhMIwTJZ/eC1Aa93KXms2Lu6CqOLqZ2wc/YzUvthURMn/ennAH/Hl7ggL+BW9PiAWM4+r6kXgn8+S7UJu0odnIcDsg8GlswlXN0Wbip0r0xp2Hi90aJF/Bqh8VM3VenbgmRiLFGaoU0DduLVWlR15n27uWyB8M7lBUhaEYnGJaxbqf3OKr6FVnCxWKr+txWp9V/ueAGTN3F/uVRdrF+b1isDW8DWC4YouFQBEyd7Pr6u1Iw41ZGxV70UTcxFEKLymu8RV0IDwxJPRk5Y5DpcSF2Bc3wklkzwtq+fq1YJ1szjE9uXOOpUCRfIDNBWFF/OPFHnhJkZxdLPqKuCiLE/5NWIfQ+GRuKUua36xX13OGUMJYyIRkad8w+Co/11DBaxpcoDtjSKdxd4UsPk3jHB9vLXLcGpWzJ7M4QU+B/g4Q7xRafGOoAvhKlCx1FIWz6vKQjg8bKWyfVu2WQG+Ykg/ARQtZIjT+EzRoic/6fbS0Dku66l1criw19B4CphO3pFkhN1DOUoJZCl+uvCLZetEOMa8Y1S1sCpzcAsy1IHlKiJPrivzKXWkRcXFdbbwya6EazdLxwVvN0jp0idB0Pg9ih5pcwjMtrZd7QVYt51iI/bzw4Bwg94P0yeW8ce/1i2TfuLlHxhMtzYBGQU90RP/eGzET0R+d71FxRqUI1n+fmNPoI47CRFGUFoO9pRIjOYOvBSnRueqbFZXwuNwcRtqadg6Rp1g/1TtWjko7NnN7iOpOUiLDCS9JrltLF98Ta805l0ObCnD4XS53bnxjqVx+0LgSN0mwnkMHelkPZzRkuXew8VXq0cPzEnCy4iV8y5d1VannbmjkVGmOlDE83KLAfarCN/JkCK2FyUNSHlLRLdKb6S9qjoWX4+b+KwZVNtdxx+O4MBlLmthwXntOMco72WwX6cNxgiw3gF38fo7Niib7HSW6+ovVu1zizGnLWW4cXyz8hUngJhRZmLiNLXm9jDrs/oT0jIe8ZTtTc00/TSUCqKNbluuaLhIMn10lX04k+llTjljlVZgyBr6FMUtM221Z9iCUNkZTd0n/Bs61c8CMAJKjeUlzzcF77+wNxKA6oEUAmWYOkJp7PP5ybZYDSFlK7qm7zDxLMcgxWMJIMdJ3AGRrkEGa5UbPPDC34DsA9odff/j26fe//PT5559/+/b1y98/vv7/T1++fvzb1y//+OXHxz/99umHXz/a3/4X);lineShape=1;" vertex="1" parent="1">
                    <mxGeometry x="141.65418662232332" y="335.43240718130255" width="25.460919719012978" height="10.93386733123065" as="geometry"/>
                </mxCell>
                <mxCell id="26" value="" style="shape=stencil(7ZzLkt7GDYWfZrasvl/WjvMerrIcqaJILllO4rc3OlPk/Dzg/zFaJQvt5tIguxto4OAAzZf8w2/vf/r13UsKv3398vnv7/714eev71/yX15S+vDp/bsvH77aTy/5x5f8wy+fv7z725fPv3/6+fX3X39aI9dP//j8z/WEf7/KpbLFuaRS+OP1L3lL7T9/+Ovr+I8fPj2OT1svOj7A+LiNquMzjA/b7N8yn7AFN//xfHycW3TzmTB+bHHI+FxhfN+S7k+F/Ylt34638b3D+LrF8/6Ubf32dHzZQpbxo8D4tI14Gl+3Dvsf41bO82m7Aq/Hhy2G0/ixP+By/Nh3Yx++HgDj+1bO228LCrA/bYvtPD5vA+yn7k87xtv+gD277TcDqfH5+KzmuQwW5p+2cn6+HYhK+trmefvXX8getnI+XnfnS92J7QDPR/Zn2Rvo17mHZW9k/1s4m7NZVKDzvp+mY/y8WW8Td8X7n7Ysxz1uHZ5/eL9jfNom2ls/zz8XtJ+2W+8xvuJ6p3Nvbcu0P2lLZwXkvmVSWN2fdwiYxugNY2tBBRq46BWSRGdzt5JrATv0TiCSkm3Gxb0BpmRG06uugdxuPqLugwDFMVNrLqqHBgfN/i0n3zSNU5pbE1OtW4NtLaYHeUNBbFA8VklbhTWUthU5DWGHL9cCY6ty/AcezxqcQNsavKEmjZcrgINpVFv0WXFmv6SHWrf6TSGkml7PtmSgpNCULISd9WBBc4Km61AvtmADCwxFCZPUMBWlNYwiNj6fV2CoCCzPxouaM6KQNV5gCEbZNZ+zGw67U3s6vsj4QjZh47uMz7zeos9PpC+3P4bSeHzT9Qben67zCbw/o33b+Dl0POxPC3tIehgP3rcFRe1hN9hn45Pbf35+mjK+UNQ39UcZT6hl6UtgOKIQG6/hCR21nfd23s/K52UoTB7sgLqb/wGcnwmox2rsppta0FIxqMwExETTTebR9iUeAp0PWd/d/gOWpdzPBCQ2WXy9eYNMyXDJjd6K4JyK9IEZkiKphietehRyhLenR8EBowhraHHfkwcBCmYmMJsTAFtqB8R/xMz0hqJZaW4YL5uhQbdLlRyGWau8oaK1trHloAIE49vcn/eYuYDietQYZdY6YA09b0EWHTEV6WXPIx4OUAOv0ZvLfjueuG5ISrxG3fmya4Gherjhi0ZwCXBEVzyi7lLkDHg4844d8eZIO0J+4FDoxI2s6M7wJpJG2cGvhPmXCSgEjndT6udtjZxZLIGmAo12KaumTYCYo5HVGZsAxbhR1DRMINO2Fg0o8XCezwQExtwLZC9Axlcc3xfQt5pA9dvKU9JkJyC9YALNvQGPaFEwbAKEZi7eEBE+L01LSmhHikzjILkfjigBPjvTwhaY1yBebhwJ4IPni7StDhKb9y5gGuYqp7AFA5Mqc8aSZJSG3Lq5e8m0a8bUvFf1S4Y+Jk2pqNdoHQ9Qd0f0Leo9C4ri+WwbKLCbgHAqpkoybxNIgtULmkZ37n4crP5TAXmD5aMUp7OmbzNiPrwEzoueaScRrwXSvsRDoCBlaALCeExGxiYgtOdsXBlJmvPNjqURA1i6hr5P8pmAeO85EFX2oPBnTkw4DCSKtZoAJa7NJZZzMm51OVAMzB20phXI9QoiD5z7NgFMILK678kMt2Uc4phMcwT6Fj8hAhXLeJbISR1p3mR+XevAduSIojAB2dYxmLNqWiochYnSts/4ELDITrll10BtEYDyskVrnNdgR4ROUAuaWy5/z5oe5ym9GcszWxrnRa8Um6ZUteJW61ZIwHEzNSF1Yl5AAkSZyKF3V1MqXFT1UbFU1LTpVSo+b7WHZ9hBdqkkPA996nkoTKmtKJtUgNy3T4KKbTTh0Lpnwwdgmjv2vRborpeCbWk4r2GQjBQ3g8vxB8IZcyrDcS2Uspvbik6A4q7FcaHSc9tbJq4F6kUhjVIUi+PFkTPEhJhzT45V6/QGT88WxHAmoHxRQVZtHgDsQYBO3HSRfb0BDtCc6shMYJBpTHX3ueIBWgJTBagKcilAgf1ySpSivCGLR03zopubEgHXC8Vx5ndhGhWz1wvjq0iSmYCW3+vOvlwLDOXic8Ucfwm4A0Rp1hJwUyK+aHoeu+y02TMB9UuF3cxUeJ+PXpBnAsr2lx0sP7Ult4abN3RX4L9Zg9YTbnfJa5r08ADm/1tVT8fe3xjTdO0lN+bqipv3B+IbBbrmA7mxr3QtAbkjO2NBzgsQ+WhhtHYVQH+fnZ8Zu1+4FkjuyA0kjGbQvCwPZGeGd0wT0froSqtlrsgN18tRuLC7aObzgVgokTBc0vOw2nLoDUEdkyFd8gJ9KKwsGbGDge/iwDdFFIP3QiOUhkS2JRDC3peB5m0pimxrPejIZ0mQoPWaOPNreh4szSLja2U35odEjliylvZG5IdUkY6oJaNCSVky2rhLQDhd22hqo7D8WLD0m+6fZeDiZgaXXVar0hnOLPKc1tAVVg52M7aGej4PM2I3YZ1OIKO1tqDuflGDXD8OjhqkXr9lCCLQEYe2ortkiCiBEzDzFk53UYP0hq7ufglQC8zQvtHJneXNtbLerWEqSrRdQvY+aD6wGFcigaMWnOdNOdi1UJoAZeDrQMouFTyiPWluOW+q7EljnJ2HRNRJUq+x2Hty90lJgcENGCZQ5Q2cKi5uXSoQkUNW0nxgFZNo0VkbENcjSNOuxcNOCFlrL3qRY/kRLk7pzY98Vy9T6NCQezQkoHddBituaozLbEuLwJVmWa41mV6bq1sST2F4SQJKrBhQVvOCvCFhEvS9teAQ+N5a4AT+D1sLtNucW7uX4qSZJ2EX1rJWqchl7MlfzQuyhsrtQsktuiM4WdFAzHtifLjwSwm3dXk+uRdVkLw33yppWWqYKRrSlgwlcXrc3c3DHPYev2cxTlkH7sLq7nJavolAQW1p8UWE+Ya7rtUQrFuQVRqu7ZDrWqC6/lMuQBiUTq5NhQoQvhqcb5BxdJ2VA+8stqCV1Js3rHb7qAKUT6+aY9JdoghUh7s315CsrK6Z54Zar/2iJkI9+tVfnUt4Vbk2zVAS90iZgNTXVsc3l8ClZr56yrlrXSqpdxc3HDcT292U1HsnbCc1PYimB7KnK2E/mxKXdqtvTEYmx8aLIUWkWb5f5fnfX+XR/fl+lec8XvAXN4wEJWLizmo8nb8EQPSKaz/P9lbursoJSGh34yX5n3zjZLh29ojk2cXlxsIexVUBzIfeeGkxOYOblXyouwW+7p3TorOm8utCJE3J36vv6NaLq8maHsjPlebq+xHTr+IrShm7s0pydERB086+FNiwFSp7ENJRcau0KLiIOyizy3XyRORlmF0v8vCdljTcrZmJDQHrtrzrO6KIkKLWGVZVjL/Joh013O9r+Z8nnvArJUnNe4FyymovrnhRutYumoioPdixHTeF8bTfvH/MpPCzF2p3CbN4/70CbkYLDmcyx+uq9LbDhEL8+IY9uC7omNXSwQzqsm9u7YcLB0yHxn82JSJ1FLUeeYPSkqOmBrZYuoJQ7Iiiihtf+farY40yBih3/fCOZdK0nc3NYQTuRXgj0d4wCCVBMSlE4D4Y24yqGIpyIAMcag7s3qq6q4Q5zbrQJ8cLrW19NEvUxfNxH+WKyFL6j35FTKT9V4P4cwz+o2U8f/9RtIQ5iv/o2s18imM02fsXvWad+AM3Re0tYcNp8hdjsRa1vkok7h+rAan4/SQUdDWeyKGr+VAbztV66Xq13898t596LR69p7cH5jC++SN/t+Pth7cvCv7y4ePH1w8SPv5fv0Bof3r9emH+8U8=);lineShape=1;" vertex="1" parent="1">
                    <mxGeometry x="167.68347845480275" y="335.7012230004982" width="12.627590828493902" height="10.6881493346558" as="geometry"/>
                </mxCell>
                <mxCell id="27" value="6,1" style="text;html=1;align=center;verticalAlign=middle;resizable=0;points=[];autosize=1;strokeColor=none;fillColor=none;" vertex="1" parent="1">
                    <mxGeometry x="102.75" y="339.56" width="40" height="30" as="geometry"/>
                </mxCell>
                <mxCell id="28" value="&lt;pre style=&quot;box-sizing: border-box; line-height: 1.7em; padding: 10px; border: 1px solid var(--card-border); border-radius: 4px; word-spacing: 4px; color: rgb(165, 165, 165); font-style: normal; font-variant-ligatures: normal; font-variant-caps: normal; font-weight: 400; letter-spacing: normal; orphans: 2; text-align: start; text-indent: 0px; text-transform: none; widows: 2; -webkit-text-stroke-width: 0px; text-decoration-thickness: initial; text-decoration-style: initial; text-decoration-color: initial; font-family: var(--gfg-font-primary) !important; font-size: 15px !important; background: var(--card-background) !important;&quot;&gt;arr[] = {6,-1,-3,4,-2,2,4,6,-12,-7}&lt;/pre&gt;" style="text;whiteSpace=wrap;html=1;" vertex="1" parent="1">
                    <mxGeometry x="330" y="230" width="310" height="130" as="geometry"/>
                </mxCell>
                <mxCell id="29" value="" style="shape=stencil(lVjLctswDPwaXTEkwec5Tf8jM3FqT1074zh9/H3BaqiKoL22b7KMFQFiF1xp4qeP7cv7ZnLm43w6ft/82r2etxN/mZzbHbab0+4sVxM/T/z0djxtvp2On4fX+ff7S42sVz+OP+sTfs84awwZU2HO/JlvGYr5342vM2C/O6wAJZP1XTyTjyDekytdfCKPnm/Jpi7eGspggRwp2x4QiA0AGCquA0jJCayQPPl+i6QGw9cBMVHsV2CmGABAEuAO4KULIKXAlPuUfIJtk79z6ABBqgIpeUvc1yBJZlA0Bwo9MWJs23AZYMkoZljYB9l11xedIjlQg1BTpSS95wQAVoshMxV/HWAzlZ58WaiBAAtzFkChBBpnpcQeUFzbhmsAJVCRIIPGCSArQLkFUHoQQAB9EEFapwEJ7RIPNRTKBQAWuawABWxrotLLYTUILytOj7G6AOIelSGhjErW3JZ4JGhDdsgHzVWpLuh4B8RmGitX8QbWq8aFHBQZSE2mT9HxiBKim6Tj4TmlB+SNeCsF5EcSsr5xfl0xVrIuAW9pFebACdQzAcRBNogUIszIGgB3idtZfC+tLYVhBaSbrBe4JUwZdwOxkfK5FXjvaKFkdTzihSE/9AANx8F/3Zi+j8YPfqoeBxbWq/bTtSdcEX7oG1YPNHDsL7ZjiY+wX1ETSI5kNFhEU31/5cx3qL9Oey9xFahgG7W7E9+CRFNdRd+CuBR1GRCb01p5r4S8FzcKrNwdMjq8DJKVfwxgl/wgM3GoAawQ5ADsB7wkGZClFdoolx2h95JNtL0yHTbN0iZldGT+OSAFIYLSmviMBIpOWa+QmlW6POycdhXyMgUSEuor6hlosat7DSoevaxlr7Vg2rF+OT5Q0fHIm4o59knFWxQ/0NTAF6/68lh0PHh+YT0cJR7sfwlkhnzAbC+x0WVVL8o/j/k7IIHqB7yKR7KvR53mQwD9ffjrwB0Aufj/MeJtt9/P3zLW/+uPF3Jr/vDBz38B);lineShape=1;" vertex="1" parent="1">
                    <mxGeometry x="419.48019697426776" y="282.27689818706153" width="1.6059831866296854" height="20.272999370278562" as="geometry"/>
                </mxCell>
                <mxCell id="30" value="" style="shape=stencil(lVnJUhtBDP0aX1W9qqUzIf9BFRBcIZACsv191DEztjT4uXIzQ79prU/L7OrV68PN97tdSa9vL89f737tb98edvXTrpT908Pdy/7Nfu3q9a5e3T+/3H15ef7xdHv4+/vNPDl/fXv+Od/w+4BrlUQmqqQ/hydK2v89+Hw4/7h/Oj2fSLM7nwfJOA+og3J3gNKJBQAaNS9RTTQUADJVL1Jl4nQeUAY1L1IrxEDpYkZqHiBUgUglUfKAXqHSmZd/rwCh0gDA3jccgAsloEPOlKoHdCp8HiAk3qoslMv5850Su/Mj0wAaJCpe45Gog/ebSZOXx0wAfGD6BosqdnL0cW+Lic/o+26NNSaUEpBnUPf2sdR7j9uP5U+bsB5UKwCUmMqWGYxu6EsQr6nJVFHQmQA+6MzKgsJaqXmjTrZAqZmp+Btyo4oAjboPa6EOdDY3DC+R5TaIiloWpy7nE2VERmN53fF8AvK3TZjahSDqmpnDh12nhs6bvv79FlcZCNTzkoUrgKFE3ejcB7aZtIAbOMWKYASvwKbcSLyPq8I4ZaXuo8jMwIBbRluculq1kyKAxLBjTPBSqHulje4GCFRZrb4CmBT4QTTqYHcmcINa7npPzzuBDqpLqK29AsOaY4BwgwEY1BwDqNdBjXKwSBpEsioFQsMAgyNAMCBw3jQDCI35Po4AwYDIeQmThhmFNzIpKA0GCMXKAIwA/MENqPoboEq0a0Ou5qi1CTku3BDsihNi6lAjANUSEyC0MNppoBvGUl9PAA0lhLl6A6gYICkCOtJBY30wACrRMyE2OdpwQmiw0oApdxLNJwgBhD8TxpOl2QHxtwFC0bInBTNTaNCnHRBZyob7FEffOhadApAjBhXdiIR04E1sKOwo/xtgJSU0J2J+AK6WDW1IW+jzY0BdJrW1yikMJkmbMaPAgXX0WCFs7kFcaWNLqNRzFAMA5ujpnmAd5RxFsi5QUU+2JtjaAFU4EvdCzVNfwdRn82xoc/NaKM/1odnfYI06qigtxcJrjSgK7yqLxMfOHnbemx6OYejZcBTyTRajfTw5SHy/DVyoC7XRRAJgUEOzSYnMasPDQMNPijfYnWgvkSVOA3PMB8SaOXY/FnmK9xIamnuFNTRv0q1Z0UWtyWLDNdsy7u2phdZ+XNhjqDeRpStSoEQfTD4AcW0tsy9VvC68zuxhgvwX5DGDlrDIEMguxwn7ZPhBHYCF8di4AM2UNtWH1q0xbHAtjNUbqeGxe079gSHx3mCuRgJDCkzO+T6vdKlwy1jHhvAYWslUDJkgsIxMRg0TIlz3zFWDhvMFJIKdb14Bhqnfctw/MQzUVmKrynBhaOdHlAdNbq1SDq0CXq3UZXN0PN+Qv2ok03FJnkDvAuuHldjQowrs5Of5MFzAQfW/V/8Xz9uP43eG+/3j4+Ezxen/43cJe3T4plGv/wI=);lineShape=1;" vertex="1" parent="1">
                    <mxGeometry x="417.5684572579404" y="282.7204533425667" width="8.021555740597568" height="6.442574248898128" as="geometry"/>
                </mxCell>
                <mxCell id="31" value="&lt;pre style=&quot;box-sizing: border-box; line-height: 1.7em; padding: 10px; border: 1px solid var(--card-border); border-radius: 4px; word-spacing: 4px; color: rgb(165, 165, 165); font-style: normal; font-variant-ligatures: normal; font-variant-caps: normal; font-weight: 400; letter-spacing: normal; orphans: 2; text-align: start; text-indent: 0px; text-transform: none; widows: 2; -webkit-text-stroke-width: 0px; text-decoration-thickness: initial; text-decoration-style: initial; text-decoration-color: initial; font-family: var(--gfg-font-primary) !important; font-size: 15px !important; background: var(--card-background) !important;&quot;&gt;arr[] = {6,-1,-3,4,-2,2,4,6,-12,-7}&lt;/pre&gt;" style="text;whiteSpace=wrap;html=1;" vertex="1" parent="1">
                    <mxGeometry x="620" y="230" width="310" height="130" as="geometry"/>
                </mxCell>
                <mxCell id="32" value="&lt;pre style=&quot;box-sizing: border-box; line-height: 1.7em; padding: 10px; border: 1px solid var(--card-border); border-radius: 4px; word-spacing: 4px; color: rgb(165, 165, 165); font-style: normal; font-variant-ligatures: normal; font-variant-caps: normal; font-weight: 400; letter-spacing: normal; orphans: 2; text-align: start; text-indent: 0px; text-transform: none; widows: 2; -webkit-text-stroke-width: 0px; text-decoration-thickness: initial; text-decoration-style: initial; text-decoration-color: initial; font-family: var(--gfg-font-primary) !important; font-size: 15px !important; background: var(--card-background) !important;&quot;&gt;arr[] = {6,-1,-3,4,-2,2,4,6,-12,-7}&lt;/pre&gt;" style="text;whiteSpace=wrap;html=1;" vertex="1" parent="1">
                    <mxGeometry x="910" y="230" width="310" height="130" as="geometry"/>
                </mxCell>
                <mxCell id="33" value="&lt;pre style=&quot;box-sizing: border-box; line-height: 1.7em; padding: 10px; border: 1px solid var(--card-border); border-radius: 4px; word-spacing: 4px; color: rgb(165, 165, 165); font-style: normal; font-variant-ligatures: normal; font-variant-caps: normal; font-weight: 400; letter-spacing: normal; orphans: 2; text-align: start; text-indent: 0px; text-transform: none; widows: 2; -webkit-text-stroke-width: 0px; text-decoration-thickness: initial; text-decoration-style: initial; text-decoration-color: initial; font-family: var(--gfg-font-primary) !important; font-size: 15px !important; background: var(--card-background) !important;&quot;&gt;arr[] = {6,-1,-3,4,-2,2,4,6,-12,-7}&lt;/pre&gt;" style="text;whiteSpace=wrap;html=1;" vertex="1" parent="1">
                    <mxGeometry x="1180" y="230" width="310" height="130" as="geometry"/>
                </mxCell>
                <mxCell id="34" value="&lt;pre style=&quot;box-sizing: border-box; line-height: 1.7em; padding: 10px; border: 1px solid var(--card-border); border-radius: 4px; word-spacing: 4px; color: rgb(165, 165, 165); font-style: normal; font-variant-ligatures: normal; font-variant-caps: normal; font-weight: 400; letter-spacing: normal; orphans: 2; text-align: start; text-indent: 0px; text-transform: none; widows: 2; -webkit-text-stroke-width: 0px; text-decoration-thickness: initial; text-decoration-style: initial; text-decoration-color: initial; font-family: var(--gfg-font-primary) !important; font-size: 15px !important; background: var(--card-background) !important;&quot;&gt;arr[] = {6,-1,-3,4,-2,2,4,6,-12,-7}&lt;/pre&gt;" style="text;whiteSpace=wrap;html=1;" vertex="1" parent="1">
                    <mxGeometry x="1430" y="230" width="310" height="130" as="geometry"/>
                </mxCell>
                <mxCell id="35" value="presum,freq&lt;br&gt;6,1&lt;br&gt;5,1" style="text;html=1;align=center;verticalAlign=middle;resizable=0;points=[];autosize=1;strokeColor=none;fillColor=none;" vertex="1" parent="1">
                    <mxGeometry x="376.58" y="307.66" width="90" height="60" as="geometry"/>
                </mxCell>
                <mxCell id="36" value="presum,freq&lt;br&gt;6,1&lt;br&gt;5,1&lt;br&gt;2,1" style="text;html=1;align=center;verticalAlign=middle;resizable=0;points=[];autosize=1;strokeColor=none;fillColor=none;" vertex="1" parent="1">
                    <mxGeometry x="690" y="308.42" width="90" height="70" as="geometry"/>
                </mxCell>
                <mxCell id="37" value="" style="shape=stencil(lVjLctswDPwaXzEgQYLkOW3/IzNxGk/TOJOkr78vNB65BmSt6pssY0WAWABL7uTu/en+db/L/P7xdvy2/3V4+HjayaddzoeXp/3b4cOedvJ5J3ePx7f917fjj5eH0+/X+8lyevp+/Dl94fcJNwZpn1CZ/5zeJEqnF19O9s+Hl0t7jvaFSlm370JpOPtOIuv2rZFU70/CAKbsF0iFRlsHaCHOHjAo8TqgKg0PyEJ1rAPKoCoe0ClnALBN8gDJNIBL0ih5l+yNgLTZ9wr7tCXSug7Ig8SvUCq1BAC2S8kDBhXgkhGn+cRVHLQBWD1AiQE1DJCaB3TqgKwGqD5oTVSRS5XYb6sKDUANA9TiAUqCVtCYae1UAJcMoH4Fq5CCMt1m9p8BeQtQfR5amcmyBhg+D01nwl8HWI/w1LC20BH5rII9+XrC1LC2513qhTKqOI671K3iFAKKr2lrnRXEYIDg0uhz0a7F0BeAgXapRfJZ9xfQKq3PjQWggW21TloWgAEqznp19duamOeauj6ASDWu0EHFVSop2isia5xXZp9ByDyz4CIJDVSPRTeiPfp+mqv9bN9gCs40vrBHDaZT8vN2KOxgKVPXCOgoACvdfAvAUlAXANhUlUq7JWYjUa63bKrVZvWqZyNrBpAUAYgWlocYA+adETsvCgES2zriohJQ5SRr0n6Frdo0qZYlLoHKX+dd/8/+InEYbjQwps4xC6hDchznGy34dvsc2iOeCfZvmFJ46KToz8ZUS3GSb41Nyr4MtuYytSAt8OCXOMY3lIXE/dmQLqYgb9JGJX5/El8g3hoF54a6M0kd7LF81KiLTJ8WYN8WirnDfJlQ8/VYKw10Gox8MwnfcYMIKsoOCejckmSO7+IYUhFA56PZxUGngJKxGhDv0nS4wvI3Lw5ripSgxOEx7TNiHceJaURHZVAaaTgDdzhiq8TGaEJMAUB5qdPwKVsXpQmZ3RZS016ATe2ZxNufLyZW7yFasC/Af2ucRYN9Bv73xTmNIYt6J47+MLC3QRF06YZMzlGX8jz+r9uXqNx5dvC6vc63Mhfxok7R4vUAw2sdG+wc462gBCYtw8G+oYMHL2Y3Q8LdfFG2aW8P/27lHg/Pz6dLvcv/4y2evTrdAMrnvw==);lineShape=1;" vertex="1" parent="1">
                    <mxGeometry x="726.0172009043254" y="283.58916324108657" width="2.0796672851861704" height="19.944203395735624" as="geometry"/>
                </mxCell>
                <mxCell id="38" value="" style="shape=stencil(lVlJUhtBEHyNrhW9L2eM/0EEwiiMEQF4+72zrehhqkZK4CZpOqe2rK21i1cv9zdP+11wL6/Px+/734fb1/td/LIL4fB4v38+vOLTLl7v4tXd8Xn/7fn48/H29P3pZpwcn34cf403/DnhUpeQBiq4v6dfsjT//4evp/MPh8f1+SQlqvPeS3YE4KVVDcji42VA7BKzBjQpgQCK1KYAwUuvBJAkaJVgtE8E4DcS2nTbWUCokrwCxCilEwAe6zBEGE1s8N26NUWJjQCq+KABTRyTEKUVzQxug3fStdF5CeVZQJOkBZQklQS6SDfnOTGS5G7fn8j5jUtzk0qo7cEjLSCnGcZLQcvaQ0g/JgEmdGej3FguOKk6PWOVTGiB5IkG4MUVms+GR0NJYnTKUrTRntMCPilaAhztidE5WGLAq0RAhkbaq0UyOV+cJSoSgfi0ZEmGeNRDoLHznzG4LKxZYuCkEQnVW5eOCkWSvyZxph6B7MRHtczUXZiKckDKfG3idU1Fa+msWngJWkL2NMwNTtReQj1yRKVWrFtLobnQ0Dx14GoQT1Tqi8YLoNFm2DcSepBGuAdA1dzriUrwzonTVvcsmevUdMnonN/DCB3q3qZZ5wFt1ukFgFeQOtmrnRmGkqzUF/E6pVd+OI8AO5sVwbpVj9MpKwCVECd3FkClKQQqlG4DwRriABg2YfAhLR0A09I77z94nE0pDlylZFviyBFGpmwnJQACKWXwSdsCmIS6ibSn9R50tZEOkpnR3Q7RnY9WAHQ9msANjhWaPpmzokbidSObKlDpIgCjqzG6TbJccqvpEMMNpLpCY8slWMW8lCVuAI1J2CwCb6XqEr3jppJFng+fA6AHmVmj5TkdnAdEy1a0FLb9oI8mbTSaFuuj432aSxhwaGuHDdvGyyREW+8x0rHGW51kTb6xlxKjSz0zF7N1CSZGMwA52rNKtIELYQ7v5wF+knm1GLMhDttI05HGxlWJl3KZTXMBQEkmIVgvYWtko0Bqm7mScwlhClrC2KSJDXGzMmEQZf0Bj52OAzYWumO1WYVWizFTCdO/UQlrH8s432zlw0bBvITx35APdKyEfCCCmQQKH5iqrfbYEJiAZeFZ1YxMouBsc0DGssF4M4PCYLZu+LkqrDxa2C2UdFNg4GLSSqrt6OBEY/r4eYG0WtSZQgixuVJCQWKD/bgE0ybHSG8zQrDlAkyPJMZjJTS5GekaijXbtB7E0bNkDrZsj1spdlOX7Qo3NmPG02qHvZEa7D7T2QpWafKjgJnlx1Nip81M4uat1KXzpis4msip2Mzna0yqtje/c76J2+jD/Lmpde8kZp95vvIn83+3aeDpiIfz5gYtzBdcPK/tjfMy54PvT/NC7YP6Z5pjn76ff/c8Prz9GXB3eHg4/Zewfm7/PMBPpz8e4vU/);lineShape=1;" vertex="1" parent="1">
                    <mxGeometry x="724.1292251081777" y="282.87117563488954" width="9.37620440104556" height="7.8881221662536" as="geometry"/>
                </mxCell>
                <mxCell id="39" value="presum,freq&lt;br&gt;6,1&lt;br&gt;5,1&lt;br&gt;2,1" style="text;html=1;align=center;verticalAlign=middle;resizable=0;points=[];autosize=1;strokeColor=none;fillColor=none;" vertex="1" parent="1">
                    <mxGeometry x="990" y="308.42" width="90" height="70" as="geometry"/>
                </mxCell>
                <mxCell id="40" value="" style="shape=stencil(7VrJchs3FPwaXl9hX86O8x+ushypokguWdn+Pj1hQBGNYY91ysU3cogm8PCW7gfMKX74dv/p690puG+vL8+/3v358Pn1/hR/OoXw8HR/9/Lwik+n+PEUP3x5frn75eX596fP5+9fP20jt0+/Pf+x/cNfZ1zyVvqGCu7v85PeLKR/n/x8Bjw+PF0Dgrk6A4JVDQhlArTjGdIMyBaDAHjLeQZc/mIf4KzPS6rNspcAsqFmC/E2IHbLBPDWqgA0a3EClGYlS4B3MyBb6gJQLc6OK8GimqGMBQxA7hbELgEQZ8flbE04DgDfZkCw3DRgNjp1S3pJzs+AYkktKVufbUjRsga0eVsRLNJx2eqccfDMf+F4EzDbgCfScdkKAYJ1Fa2Zczo0SyKBYrQ2+yFE68pxwdIM8HCcssGbI0CyLjwdOue0R9I6CYgU3tbV+CXhogVlcuTAwAOVnyijVAGsiMDD+tscR97Lurr5NMyAKAMPC8hzHPkii1hIiw/6CMV9QOQZAthCzRDMz5uEOauIo+As0gzVggD4xmUSG624AXGZ5ooBzxcRGHCTp/Qsgy32Ac5yYoDKNmz67AZUGJXOjfkT46sI1ToC/zK+mROhisQKPN4rul3sxf+rCjm4+Gr9Mk653GG8dMDisDrCcHe8s0Tr0anszGUe70SMOq6NKOBJrN8t/krWRPy48evVeEU4hbVLdPL/EdDEBlttUkmJ9c4RjZiKIqK3ujOHUNCSEDGXqHS1Qbu3qilRoM+WFcmGpZqGob1vsjLN4DTjoHQxg3Sxq1A2fmYQ1FKRNhBntKA8auX+eCjOeXwbibEfRtCj5AMvdQsUbyZGS+bEDkFT1znTwGhReLkupcJf/L4PyGzzW/XYB8BpsxNQzqowunn2MtxQRfa3xOkfdHlEB5ipPur61fsOgQTJaGsJgwgWyYApuCY1SfwAUHBHrTj7hcOuhLwTjujoJBoDVDPS02iUrwCKd9BZ96W3SMpznjMIAC/KXoeJyy4pxdb6DverHAWAtnUjf5GjAMSFzVXZgA3s6SITAruUHQOUJuyRVedbm3jL031haJlyhflqkwBqBmziohmUxuur46oO7z76rWtVqGfoS2hkUSsBoARC8KlTFRhNJA1AU46rOzmt6n3PHHzpIr5vhQaVvg2gbPA75wWq5emXlL82Wm3rewHgLNafunUGK4YZsDXHIuPAu2Q0OKsJP5QyePyKFVUsQTsUmsGPDNkXJ5eDo2tmFySXCxcBaIciPA251KlBTyNY9vVY56oBhaiMTpcMfhNY6ggDgo+OPA4E1pYtbTFBdWKFW09f9QHdoorRfdSDYxhydJLNGH4mqQH5o0700DuQ37Z2RmgTXzgdYpS9w4+G/v9v6AOP/9HQX+8P+yvqTpIP2aK+7Wjs360jURm23FKFgzO2yJURNimWRV2jNgx0oK4i0O23eY/wpKgZ6jJDkMevWADXUi3mg2Oj62gHbp2+0l1H0Fcdjkn5Erf74/viZinvNraZ0zgPgXhrPKmKrqPUW53TfvO6vonsa/cv4jSlhZyibNhStjAvaeM3taS8nDbru52U+VIu6qOzbUlLMVVxCgAfI+kbsA1AIjvq69flfmq7xTsA0Ax9KJmbALoM0rmw2pCzrEibH+Zdyk3WSJhIpACN65TR4KTlRlipcshHchx0ugyNOs4HLwXGyyKZGgvOmnQsNWaqCq5QGddZoTYvqTAtWuro7YLOGXf0/kIfbcGlLOk3JLLjS+qjdzCWq79+4YpbgExL6lKAwQ90k9f1RTsAwTNA6XjEUlyWJJuXsjQvTvNPyu9GJI6mo0XF8c7F95od+AzwaGMDU8qR6/zorL83ON79CtAxAB/e3jj68vD4eH5h6fp3fkMJj85vN8WP/wA=);lineShape=1;" vertex="1" parent="1">
                    <mxGeometry x="1028.622149990982" y="281.5123921512751" width="5.911946249591997" height="13.8382596443132" as="geometry"/>
                </mxCell>
                <mxCell id="41" value="" style="shape=stencil(lVfLbuMwDPwaXwlR1PPc7f5HgaabYLNNkab7+PulYcixqGSK3myZY3GoGUqa5OF9//S2m7x7v5xPP3d/Ds+X/STfJu8Pr/vd+XDRp0keJ3l4OZ13P86nj9fn5f3taY6cn36dfs9/+LvgOJLkGeXdv2VEyC8D35f44+F1G5/I9fE6wgEACkXXAXyBAM/kpM8okRQAEAqhA4RIBQEi1X6GGFuStwHKoXaAFKjwfYAwhdIBMi6rBDtDceQTABRLukTKch8QEpV+huopAEAJ7X8rgIkB6ZIpGYCjCGbQz7lagFQAkIGD/gKkVBMlZzmECACFUrBVikCttQ4cNEmwcAow4quRPFCrAlzsAakleRuQyRsOGaq1BkqGg5YBceD2eQVUYmCgUqwfZlaAtIo55CElDwCearKkM1jpwuSdLWsEFlVDiuEQ2y/uAaIBCGVEmgct+VaG2wCVmqmSyhullFoRNwZKKKU6NIFPLOpvWDQix2nbGjgwEl8Z/OCJ0QyVorfrEIAf2DlyRhu43+sUYfCoR4BMdfAobExx6GTqKWCIGcBfAUi1O8qmDre3xdwWaqtXIA7dqWNfJt0zIsjJr2JbAUwCysSDOHIgBjPo+ceII+kIkB/75uH18KBLjRbCNqawbko347V79wwkQ3nH1nk356uMCDQlbw5wyA2DFwS2SdcOd2s6lMFm5Wx/4VauO8lnkzw+JZHrk8HdTvfBaMLRoS2189M13AGqpW3zm3CgA3Z2YR3si8xWmNp4UZeTJttrLVH6HEhMf2jHhnvOMjcFDzvcl28in8brw/Xa83I4Hpdb0/a7vSbp0HLFksf/);lineShape=1;" vertex="1" parent="1">
                    <mxGeometry x="1033.6290602789345" y="298.97706514166185" width="2.8858046992253117" height="6.474697436750845" as="geometry"/>
                </mxCell>
                <mxCell id="42" value="" style="shape=stencil(lZbdUttADIWfxrdnpNX+XlN4D2YIjYc0YUKg5e3R1mOIlkSd3vnv88pHR8c7yc3L9v55MwV6OR0PT5vf88NpO8mPKYR5v90c55MeTXI7yc3j4bj5eTy87h+W8+f7/mQ/+nV462/4s3CNUEKnAr0vV2JCan+v3C3Abt6fAxmlGCAJWnWAhsoGyIKaXSCJAUoEeyUltGyAqis4QG2IFmiMFh1AVbIltYLE14FCyFYlJgLRdSITJNolGtiRKRGq7ZzqQE4jooBtI2oFO4BUkAVK84EMsrrmBhIHKGMjUkV1VIphXCGqW5zO6W1pFggITklaQK4G0CKzs0KuaMkCGSE53lARrZlU6OB8dG+TXUFbGfyBoGFG6V8zykPjCLFcB87c/OkNWoPh8hI6MBbQofJa3UdysGtbX3FZJh36YUg1GJySeqzYkr6i53KrBeXbjFYnBjQa6wBofHozmhCHoVZZHTN1QP4HkDima09Dx0whrm7+BBKyE0yc1rQ+i43ofHRBtW4tDHHaEMYwzrym7cXn1ar2AxKvKXLteWuLSODg1ZNsYgRfUc0TWz831xQcR4GYkZweBxmBBHEmRz0x/Bm0AY6garpBofHfpgdfO47HebdbNizn98cdil5adjdy+wE=);lineShape=1;" vertex="1" parent="1">
                    <mxGeometry x="1034.422370903052" y="293.4723013646596" width="0.8244664722089928" height="0.8269956595423821" as="geometry"/>
                </mxCell>
                <mxCell id="43" value="now 4+2=6 ayega presum but ye 6&lt;br&gt;to pehle bhi aachuka&amp;nbsp;&lt;br&gt;so take that&amp;nbsp;&lt;br&gt;and now count + frequency of that 6&lt;br&gt;0+1=1&lt;br&gt;then increase freq of 6" style="text;html=1;align=center;verticalAlign=middle;resizable=0;points=[];autosize=1;strokeColor=none;fillColor=none;" vertex="1" parent="1">
                    <mxGeometry x="940" y="373.42" width="210" height="100" as="geometry"/>
                </mxCell>
                <mxCell id="44" value="presum,freq&lt;br&gt;6,2&lt;br&gt;5,1&lt;br&gt;2,1&lt;br&gt;4,1" style="text;html=1;align=center;verticalAlign=middle;resizable=0;points=[];autosize=1;strokeColor=none;fillColor=none;" vertex="1" parent="1">
                    <mxGeometry x="1270" y="291.76" width="90" height="90" as="geometry"/>
                </mxCell>
                <mxCell id="45" value="" style="shape=stencil(7VrJcls3EPwaXVHYl7Pj/IerLEeqKJJLlrP8fXrCAv3QIJv2LQffKBFNAIOZnsYM7tK7Lw8fPt/fRf/l7fXl9/u/Hj++PdylX+5ifHx+uH99fMOnu/T+Lr379PJ6/9vry9fnj6e/P3+wkfbpj5c/7Rf+PuFqdzkZKvp/Tv8Jzuf//vHrafzT4/NxfHWlLeOTy1GMzy6PZXx10Yvx0Y24jO+uVDHeu+rX9QdX0nVAaa71FVCcbwKArwkwXAgCEF1YlwQbFQHIw6X1DLBpL/aQq6t5PYQoTyFnl9YlJZxjEQD83grI3iVhpQy3IUByQ83g2Uq5Sc9LYxrxDBjTDNcAtIcS3BDnYIC6AvQebEmra8BZhvBuANp60uaO4uAA6DQDnKVLs/o1fhAhQwNCWQHRFWFWACIBsgxp85z1HCqsNDRgtVJtrqt4AGCNhwpDq4gDYLVSC67qJcXVNVpyXc8Q1023OiPk6jmsm27dRT0D8VL3LuuD8yt19zjJ/HsB2VVBxheWVKfDX900sX137YaV1hmGl3Rv57DuYYCebzjfetIjuaYBeY2HUaazfKd7D7i3mCHlaZNzBvJeOlNsTH0DdhW+ERHCg9cUBfVBJsS87VrMEPpMmoeDULsO2XU6OS+pD4m/kbs2eXLdjfWkO7YgJqicgHrSaXrG73l8mO5+2aYuEimdM9jF8ZA+q+O15oaI5y06QUlV/r7fKCyJ9e8MVmVG95xuW5na7Mr40Xi8EjGg9MTjlYaB5gk8Xrl04kSI8UGlWo4AG6+YxY28rUcp1ZnCDuOV/9QtCRbpD3VG02F8F/ZpnD7gD0o4WwCTgZpUeKCISjMM5xWn9C2jBQmAD5U1BhDzSZD7fmgglSycAixEXgTWqkqlBlYWfWhAYp4bYSqyy4A6w+RA1eoSZrKWskeSkYzrRd2SQVGAOrP8YQ9ecFHxDICVkiALKHeKBpyDWhJ0tSd617IWMpmvtnlKh8vxsxGwJRxxDt806UHhKQaz+CLnC5Ii7ev1pE10CiuNvJEkHF4kTciI3BgQhLcO0NI2g6IZKBuKh9al1oF24sTT5YV+ICA7A7o4uIOeOzCZ4npMMQID1A0GgEzed9YD13ZNlR47anUQjfM5AIqYRt2YzOs9IILSBhD+bTS070EchGnSbQ9BA+KWgpToBIBV2JAhB0Cik+6yKgHA2G6Sislgpb65q0oQiFG/h5wK6spXHgBU3h2NKys2gwL0TQr0KeeuxsM2g7qrWsSRHBt602OmgwNA6VWjjciAoZyvzxvUwVvlweGiWRggl/SjALvwUwkgznvcZUBkKyHJdZHZzftpBtwUxaaRFSMxX5UHVzvLGUgBdfFBZqdaZu9SGRc4Agmmcwnrqjqh63aUd88SuA6IKK9aYREJjBu3Gc80Y3wulpQye+vQ943kWQoYn6uyBzhis5KKB1yZKClaOUnVSc610cNJF3XjAEdQBtKV91C4dGMqUZjVbk20pHPGuFL2SFuKUxIusY2szCCi4WeZ4WeZ4f9cZqicP+DPiiTOwuMoFFSSnS2gY3ypske8UJdXDhS2niooQhXyQ9sAVTaFLAYIMGSDEU7UiUiD7I/Aqsy8Sd6eU2AZbNlD0dZG1UNXk1LaUqYu5APAJW3dKgCALjw3mhEG2HSCanektJG7dlYDbK6hZDAAe35STaELAN12urAk3dgyADGYbp2ZWTfKUP0UAxCn6vafuQaRtm4wGoB6nrqFuc9wo0lqgHXTN9qwtmlakm702jmsAXSjlWyuQXvQzWoA6LXHjXZ4SnwdsYb7jWLpaiVI7xvNOUoP9mhAUCUAVFKGVlf5DQBaUh6y/JQKK0KIe/ksYXtPks+Fk8uAzgUAa8zqtxgkMjBnVKIkcsMdfK5myJkLYhAGquWZG28aSkuR8V5SDl3SPRwhrHuwhoXwVnO1NYAg7oMqWrf9tZSShoiWSi9cJGfUMJXv2UYyPmtiE+kKIMa3SuPVXccu2pHGqwyN8VRG8vrmX5iFvX4NV+brncN4JW23OtjN8WP7fbXfrQTrpf9gPAWNl1FZt2aVLqfa60IeryRY7dxi95Iaf/j14s3x+PDtqeSnx6en00vL4/f8tBL/Oj3LTO//BQ==);lineShape=1;" vertex="1" parent="1">
                    <mxGeometry x="1312.1586161693417" y="242.66756670049222" width="7.533877382067927" height="22.903189140109987" as="geometry"/>
                </mxCell>
                <mxCell id="47" value="presum,freq&lt;br&gt;6,2&lt;br&gt;5,1&lt;br&gt;2,1&lt;br&gt;4,1" style="text;html=1;align=center;verticalAlign=middle;resizable=0;points=[];autosize=1;strokeColor=none;fillColor=none;" vertex="1" parent="1">
                    <mxGeometry x="1530" y="292.65999999999997" width="90" height="90" as="geometry"/>
                </mxCell>
                <mxCell id="48" value="" style="shape=stencil(7VpLch03DDzN27L4Bcm149zDVZYjVRTJJSuJffuAecXRsDGvJ9pl4Z0sozUkPs0GyEv68O3+09e7S/TfXl+ef7/7++Hz6/0l/XKJ8eHp/u7l4VV/uqSPl/Thy/PL3W8vz38+fb7+++unYTl++uP5r/EXvl9xIi6mgYr+x/U3waX27y9+vdo/Pjzt7ZPLq312PRF774pf7Jvr8bZ9afPz23qiC50AiqtxBYgLZAclurZ+IXpX/W1A7q7LCiguVwKoLuYFkLzzDJBxSSk7YUuKrq9eTd1F4tasUYWwJZeIW7OfTtwA264OAbqAXBZA8a6RzHhb8QbIzhcKCPAFXRJx6wCEBaDZKIECfF8BuiQOCGukpdLkG5teA1e9i8IBaxxqcoFvOq3ZWuVsD3mNQ21ngSsroHHOUICsydcSrTgF1DXSrbjGAW3ddKtnAKjppt8kcdB68CugB1fIphUA6d2L8xyQ19To1Qlza8MSDV5XyXYdXV3zu2u2EEBUv9YVIK4QFlB2D2uou3IbAwgWRFduI8Sk540HgOeA4GSt0dYm3R4CgqmgJjPjjwEVQ92yS6TkQkFianH67RiQcNNVE5iwQAjzwNkAddbUIaBPJt3siyvkA9WVtUKVlirZQZkx2uwDDUJ2BVjMT58dpzamkTTKScFFYPpC1+MxJ9Q+k7z2s9Z39p7bw/pVAZCcU29EtI/EPx5lmwq5Rv9+j2ifqT8hXrJF5LgqZ4Hs7D1ZTzL7jVR3JuT3YU/8nyf779dD6kWj381+ib1qUo/2jEjlwJ+NsJzhXRHq/+CnhN0AqgPIAThkOFR8oAoybGpuRxH0CzIrZM9B7AsNz2QlOUZayuwdltRnXdw6O1BX+JlYx4BklEvkB6YmEhwFmeq7EWkACO1GUkBq0fMvMcm5ad7dCUs1qrgGAKUD4tYhpkCHRHpgarNSGwIYHeVmZEWg/FiCC0YQslwqhmFUcrJNF3EJVILM/L3VCkNnq6lRGMeoE0HpRCpq9UxCaeSprJCjXoHVg5Z8NN0IO3e0giEONVOdrSuG1KhxltQxIDkBKeI5QKay2WmLTHhJJW+Bw40vSTsDe7oxtaCADksK0w3HAPV6QYCQSPetf9p/gQSut/n3doDONq0yu+Km2YRBAS0hQNiB4q2qSlRnd9NHKoBNDHo3uirzyDU8IBSQTgJhZhKsIDTUPSNA2JIE+X58gWdfMEtibWQ3al7dytSYAvALac4RbwKMvmV6sueD7GPkOvrYjoDAAIZctSAaA2yt9b5GGc9UI0IDnRho8mVT1GzUo+kdjIwOzK3dVUN9hRdQbwhgR9AAgJfSnDzeAoghgc5y6d0Aox30RGH1oAIMBsR6ZgUGKDjqqbzdawHZuHKVqOc4ThgaHdzoAnBKEqhwraal1JM4squGTczvpoBMuIpp4vToZk3TOJaNNGbZqpKsGVnJJm6lmLFhmjLwGODNAK1QwJDGoKWFT2Mr0sxQE2yyH7HjUC5k+idWrOkh7xmgYKuoHQcFRGwgRkmxAVqff2+XS4xbtRmNppGrbKaXUcMNLU3cqg01SuNOuTWYmZKKZXatVFEkas0ysV5QXykrNdb3oVjSEmdD9zBJcePVSvvKnzO3nzO3//PMrRqBl2m73We27POfFzzO6BqnlIAe1YpkgjAkvL8czTNbklHBQwewL4gTGLkJVfKhYZRViLB+R8tGzIyOXUVoHTRD7Wz2HwsSSys0UTUz4La9VfqIwd6ztU61UTK1rEKEyYSU8V2FChF6Uy3I1uP+kl0uVuyotD+he0jmcvHkwtNMlE+uVFPGiju5tE0Z3XpyLawAHN+eXDxnc3l+crWd33t5ns0I+uR6PmM9nD0AyHOws6tp+sQgm9u/k0cMpuLGMwn2NqS89yFGMWSceXoX7NnG0yZS06ngvHc8V2FuLTg2fJsx3wJAHLR7YJOeZMg4y5Tqt2q6rXvQdoPNrMdjEniYxHMpBwPIM5T/8SpAybOwlxsyRdQGyPQJWu5IlUP5MV0ScVoV+MVVybgHPbnZe68iKOUbfflUOvapmSoNiegjPzPllj2MeTy9RxvCLoE9VW7mlSG//X8Tam/2nq3HTP/4wxkxFHny9wsenp62dmpf0Z51RiJTuO/8z/wpSF6eTs7VPuF+2QTM2gdaMYevTtmg5vSVqv7w9sT1y8Pj4/WF7P7/8Ums/ur6nDZ9/Ac=);lineShape=1;" vertex="1" parent="1">
                    <mxGeometry x="1573.99613370537" y="246.7629641440704" width="9.250760248431435" height="18.320670675646205" as="geometry"/>
                </mxCell>
                <mxCell id="50" value="now 4+2=6 ayega presum but ye 6&lt;br&gt;to pehle bhi aachuka&amp;nbsp;&lt;br&gt;so take that&amp;nbsp;&lt;br&gt;and now count + frequency of that 6&lt;br&gt;1+2=3&lt;br&gt;then increase freq of 6" style="text;html=1;align=center;verticalAlign=middle;resizable=0;points=[];autosize=1;strokeColor=none;fillColor=none;" vertex="1" parent="1">
                    <mxGeometry x="1460" y="375" width="210" height="100" as="geometry"/>
                </mxCell>
            </root>
        </mxGraphModel>
    </diagram>
</mxfile>